<?xml version="1.0" standalone="no"?>
<!DOCTYPE svg PUBLIC "-//W3C//DTD SVG 1.1//EN" "http://www.w3.org/Graphics/SVG/1.1/DTD/svg11.dtd" >
<svg>
<metadata>
Created by FontForge 20090914 at Fri Feb  9 21:38:42 2018
 By www-data
Copyright (c) BPG-InfoTech, 2009. All rights reserved.
</metadata>
<defs>
<font id="BPGBannerSuperSquareCaps" horiz-adv-x="1024" >
  <font-face 
    font-family="BPG Banner SuperSquare Caps"
    font-weight="400"
    font-variant="small-caps"
    font-stretch="normal"
    units-per-em="2048"
    panose-1="2 6 5 4 2 2 2 6 2 4"
    ascent="1556"
    descent="-492"
    x-height="1063"
    cap-height="1487"
    bbox="-361 -493 2220 1607"
    underline-thickness="104"
    underline-position="-149"
    unicode-range="U+0020-U+2219"
  />
<missing-glyph horiz-adv-x="692" 
 />
    <glyph glyph-name=".notdef" horiz-adv-x="692" 
 />
    <glyph glyph-name="space" unicode=" " horiz-adv-x="692" 
 />
    <glyph glyph-name="exclam" unicode="!" horiz-adv-x="516" 
d="M163 0v227h190v-227h-190zM172 388v1099h181v-1099h-181z" />
    <glyph glyph-name="quotedbl" unicode="&#x22;" horiz-adv-x="569" 
d="M221 1434v-577h-137v577h137zM487 1434v-577h-138v577h138z" />
    <glyph glyph-name="numbersign" unicode="#" horiz-adv-x="1575" 
d="M942 841h-216l-21 -59l-20 -55.5l-20 -55.5l-21 -60h219zM942 1453l-164 -469h215l41.5 114.5l43 120l43 120l41.5 114.5h164l-165 -469h306l-50 -143h-307l-41.5 -114.5l-41.5 -115.5h331l-50 -145h-329l-83.5 -234.5l-83.5 -231.5h-167l168 466h-220l-41.5 -114.5
l-43.5 -119.5l-43 -119l-40 -113h-164l165 466h-319l53 145h315l21 59.5l20.5 54.5l21 55l22.5 61h-342l46 143h344l41.5 114.5l43.5 120l43.5 120l40.5 114.5h165z" />
    <glyph glyph-name="dollar" unicode="$" horiz-adv-x="1384" 
d="M323 511l-0.00195312 -29.002c0 -16.667 -0.333008 -28.167 -1 -34.5s-1 -12.833 -1 -19.5c0 -51.333 3.5 -93.5 10.5 -126.5s19.5 -59 37.5 -78s42.333 -32.333 73 -40s69.667 -11.5 117 -11.5h41c4.66699 0 8 0.333008 10 1v494c-87.333 2 -160.5 10.667 -219.5 26
s-106.333 39 -142 71s-61.167 73.167 -76.5 123.5s-23 111.5 -23 183.5c0 152.667 32.667 263.667 98 333h-1c66 68.667 172.667 103 320 103c10.667 0 19.5 -0.166992 26.5 -0.5s13.167 -0.5 18.5 -0.5v101h178v-102h21c72.667 0 135.834 -6.83301 189.501 -20.5
s98 -35.167 133 -64.5s61 -67 78 -113s25.5 -101.333 25.5 -166c0 -8 -0.5 -19 -1.5 -33s-2.83301 -36.667 -5.5 -68h-189v39c0 5.33301 0.166992 11.333 0.5 18s0.5 15 0.5 25c0 38.667 -3.66699 70.5 -11 95.5s-20.166 44.5 -38.499 58.5s-43.166 23.667 -74.499 29
s-71 8 -119 8h-9v-459c88.667 -3.33301 162.667 -12.833 222 -28.5s106.666 -39.667 141.999 -72s60.5 -74.166 75.5 -125.499s22.5 -114 22.5 -188c0 -82 -7.83301 -152.333 -23.5 -211s-40.167 -106.667 -73.5 -144s-75.833 -64.833 -127.5 -82.5
s-113.834 -26.5 -186.501 -26.5h-51v-92h-178v94c-6.66699 0 -13.334 -0.333008 -20.001 -1s-11.667 -1 -15 -1c-78 0 -145.167 8.33301 -201.5 25s-102.666 42.334 -138.999 77.001s-63.166 79 -80.499 133s-26 118.333 -26 193c0 8 0.333008 19 1 33s1.66699 29.667 3 47
v27h190zM788.998 167.998l18.998 0.000976562c50 0 91 3.83301 123 11.5s57.333 21.5 76 41.5s31.667 47.167 39 81.5s11 78.166 11 131.499c0 44.667 -4.33301 81.167 -13 109.5s-23.167 51 -43.5 68s-47.666 29.167 -81.999 36.5s-77.166 12 -128.499 14zM610.996 1317
h-22c-50 0 -91 -3.5 -123 -10.5s-57 -19.5 -75 -37.5s-30.5 -43 -37.5 -75s-10.5 -73 -10.5 -123c0 -41.333 3.5 -74.5 10.5 -99.5s20.167 -45 39.5 -60s46.5 -26 81.5 -33s80.5 -12.833 136.5 -17.5v456z" />
    <glyph glyph-name="percent" unicode="%" horiz-adv-x="1858" 
d="M1455 153c34 0 61.333 1.83105 82 5.49805s36.834 11.834 48.501 24.501s19.334 31.5 23.001 56.5s5.5 59.167 5.5 102.5v246c0 44.667 -2.16699 79.667 -6.5 105s-12.333 44.333 -24 57s-27.834 20.667 -48.501 24s-47.334 5 -80.001 5h-69
c-65.333 0 -108 -10.333 -128 -31c-19.333 -19.333 -29 -72.666 -29 -159.999v-246c0 -42.667 1.83301 -76.5 5.5 -101.5s11 -44 22 -57s26.833 -21.333 47.5 -25s48 -5.5 82 -5.5h69zM474 709.998c32.667 0 59.167 1.83398 79.5 5.50098s36.166 12 47.499 25
s18.833 32 22.5 57s5.5 59.167 5.5 102.5v245c0 44 -2 78.667 -6 104s-11.833 44.5 -23.5 57.5s-27.5 21.333 -47.5 25s-46 5.5 -78 5.5h-72c-31.333 0 -57.166 -1.5 -77.499 -4.5s-36.5 -10.833 -48.5 -23.5s-20.333 -31.834 -25 -57.501s-7 -61.167 -7 -106.5v-245
c0 -44 1.83301 -78.5 5.5 -103.5s11.167 -44 22.5 -57s27.333 -21.167 48 -24.5s48 -5 82 -5h72zM576 -18.001l524 1523h180l-525 -1523h-179zM394 539.999c-58 0 -107.167 5.66699 -147.5 17s-73 30 -98 56s-43 59.833 -54 101.5s-16.5 92.834 -16.5 153.501v307
c0 59.333 5.5 110 16.5 152s29 76.167 54 102.5s57.5 45.5 97.5 57.5s89.333 18 148 18h87c58 0 107 -5.83301 147 -17.5s72.5 -30.5 97.5 -56.5s43 -60 54 -102s16.5 -93.333 16.5 -154v-307c0 -60.667 -5.5 -111.834 -16.5 -153.501s-28.833 -75.5 -53.5 -101.5
s-57 -44.667 -97 -56s-89.333 -17 -148 -17h-87zM1377 -18.001c-58.667 0 -108 6 -148 18s-72.5 31 -97.5 57s-43 60 -54 102s-16.5 93 -16.5 153v305c0 60.667 5.66699 112 17 154s29.5 76.167 54.5 102.5s57.5 45.333 97.5 57s89 17.5 147 17.5h87
c58.667 0 108 -6 148 -18s72.5 -31.167 97.5 -57.5s43 -60.5 54 -102.5s16.5 -93 16.5 -153v-305c0 -60 -5.33301 -111 -16 -153s-28.5 -76 -53.5 -102s-57.667 -45 -98 -57s-89.833 -18 -148.5 -18h-87z" />
    <glyph glyph-name="ampersand" unicode="&#x26;" horiz-adv-x="1489" 
d="M1205 169c-18.667 -35.333 -40.502 -64.8291 -65.502 -88.4961s-58.5 -43 -100.5 -58s-94.833 -25.667 -158.5 -32s-143.167 -9.5 -238.5 -9.5c-69.333 0 -127.833 2 -175.5 6s-88.5 11 -122.5 21s-62.833 23.333 -86.5 40s-45.834 37.334 -66.501 62.001
c-13.333 16 -25 34.833 -35 56.5s-18.167 47.167 -24.5 76.5s-11 63 -14 101s-4.5 81.333 -4.5 130c0 58.667 4.33301 110.167 13 154.5s22.5 82.666 41.5 114.999s43.5 59.166 73.5 80.499s66.333 38.666 109 51.999c-38 34 -65.833 74.833 -83.5 122.5
s-26.5 105.834 -26.5 174.501c0 60.667 7.33301 112.167 22 154.5s39.334 76.666 74.001 102.999s81 45.333 139 57s130.333 17.5 217 17.5c82 0 151.833 -6.5 209.5 -19.5s105 -33.167 142 -60.5s64 -62.166 81 -104.499s25.5 -92.833 25.5 -151.5v-141h-200v131
c0 62.667 -12.333 104.334 -37 125.001c-13.333 11.333 -38.333 19.333 -75 24s-85.334 7 -146.001 7c-53.333 0 -96.166 -1.33301 -128.499 -4s-57.166 -8.83398 -74.499 -18.501s-28.666 -23.834 -33.999 -42.501s-8 -44.334 -8 -77.001c0 -42 10.5 -83 31.5 -123
s53.5 -78 97.5 -114l11 -9l123.5 -103.5l120.5 -101l121 -101.5l125 -104v180h200v-233c0 -14.667 -0.666992 -30.834 -2 -48.501s-4 -37.167 -8 -58.5l139.5 -117.5l139.5 -114.5l-119 -143zM525.998 736.004c-39.333 -1.33301 -72.333 -6.16992 -99 -14.5029
s-48.167 -22.833 -64.5 -43.5s-28 -48.667 -35 -84s-10.5 -80.666 -10.5 -135.999c0 -42 0.833008 -76.333 2.5 -103s4.5 -48.667 8.5 -66s9.33301 -30.833 16 -40.5s14.667 -18.5 24 -26.5c10 -8 22.667 -15.667 38 -23c15.333 -6.66699 35 -11.667 59 -15
c50 -8 137.667 -12 263 -12c48 0 90 2.33301 126 7s66.833 12.334 92.5 23.001s46.5 24.334 62.5 41.001s28 36.667 36 60z" />
    <glyph glyph-name="quotesingle" unicode="'" horiz-adv-x="295" 
d="M217 1434v-577h-137v577h137z" />
    <glyph glyph-name="parenleft" unicode="(" horiz-adv-x="664" 
d="M138 989c0 96.667 6.66699 178.002 20 244.002s34.666 119.167 63.999 159.5s67.666 69.166 114.999 86.499s105 26 173 26h82v-190h-65c-74 0 -122.333 -17 -145 -51c-24.667 -36.667 -37 -130 -37 -280v-480c0 -150 12.333 -243.333 37 -280
c22.667 -34.667 71 -52 145 -52h65v-190h-82c-68 0 -125.667 8.66699 -173 26s-85.666 46.166 -114.999 86.499s-50.666 93.333 -63.999 159s-20 147.167 -20 244.5v491z" />
    <glyph glyph-name="parenright" unicode=")" horiz-adv-x="664" 
d="M526 498c0 -96 -6.66699 -176.831 -20 -242.498s-34.666 -118.667 -63.999 -159s-67.666 -69.5 -114.999 -87.5s-105 -27 -173 -27h-82v190h64c72.667 0 121 17.333 145 52c25.333 37.333 38 130.666 38 279.999v480c0 149.333 -12.667 242.666 -38 279.999
c-11.333 16.667 -28.833 29.334 -52.5 38.001s-54.5 13 -92.5 13h-64v190h82c68 0 125.667 -9 173 -27s85.666 -47.333 114.999 -88s50.666 -93.834 63.999 -159.501s20 -146.167 20 -241.5v-491z" />
    <glyph glyph-name="asterisk" unicode="*" 
d="M406 1045l106 -60l104 59v120l-104 62l-106 -61v-120zM367 1021h-275v168h276l-137 238l142 83l139 -238l139 238l142 -83l-136 -238h275v-168h-275l136 -237l-142 -84l-139 237l-139 -238l-142 83z" />
    <glyph glyph-name="plus" unicode="+" horiz-adv-x="1706" 
d="M921 1227v-547h534v-134h-534v-546h-134v546h-536v134h536v547h134z" />
    <glyph glyph-name="comma" unicode="," horiz-adv-x="692" 
d="M241 0l0.00195312 250.001h210v-274c0 -58.667 -18.333 -103.5 -55 -134.5s-88.334 -46.5 -155.001 -46.5v126c25.333 2.66699 43.666 8.16699 54.999 16.5s17 21.166 17 38.499v24h-72z" />
    <glyph glyph-name="hyphen" unicode="-" horiz-adv-x="825" 
d="M121 472v175h583v-175h-583z" />
    <glyph glyph-name="period" unicode="." horiz-adv-x="692" 
d="M116 0v250h208v-250h-208z" />
    <glyph glyph-name="slash" unicode="/" horiz-adv-x="545" 
d="M110 -185h-174l525 1690h177z" />
    <glyph glyph-name="zero" unicode="0" horiz-adv-x="1384" 
d="M756 170c73.333 0 126.999 4.66504 160.999 13.998h-1c66.667 22 107.334 64.333 122.001 127c4 16.667 7.16699 40.834 9.5 72.501s3.5 70.5 3.5 116.5v485c0 47.333 -0.833008 86 -2.5 116s-4.66699 54.667 -9 74s-10 34.833 -17 46.5s-15.833 22.834 -26.5 33.501
c-12 10.667 -24.5 20 -37.5 28s-28.5 14.5 -46.5 19.5s-39.5 8.66699 -64.5 11s-55.5 3.5 -91.5 3.5h-127c-36 0 -66.833 -0.833008 -92.5 -2.5s-47.5 -4.83398 -65.5 -9.50098s-33.5 -10.834 -46.5 -18.501s-24.833 -17.5 -35.5 -29.5c-10.667 -11.333 -19.5 -23 -26.5 -35
s-12.667 -27.5 -17 -46.5s-7.5 -43.5 -9.5 -73.5s-3 -69 -3 -117v-483c0 -46 0.833008 -83.833 2.5 -113.5s4.66699 -54.334 9 -74.001s10.166 -35.667 17.499 -48s16.333 -24.166 27 -35.499s22.334 -20.666 35.001 -27.999s26.667 -13.666 42 -18.999h-1
c35.333 -9.33301 90 -14 164 -14h127zM622.999 -18.002c-91.333 0 -168.5 9.16406 -231.5 27.4971s-114 47.833 -153 88.5s-67 93.834 -84 159.501s-25.5 145.834 -25.5 240.501v491c0 95.333 8.66699 175.833 26 241.5s45.5 118.834 84.5 159.501s89.833 70 152.5 88
s139.667 27 231 27h139c182.667 0 310.334 -38.333 383.001 -115h-1c74 -78 111 -211.667 111 -401v-491c0 -189.333 -37 -323 -111 -401h1c-72.667 -76.667 -200.334 -115 -383.001 -115h-139z" />
    <glyph glyph-name="one" unicode="1" horiz-adv-x="1384" 
d="M707 0v1276l-79 -80l-242 -242l-126 126l408 407h236v-1487h-197z" />
    <glyph glyph-name="two" unicode="2" horiz-adv-x="1384" 
d="M145 0l0.00195312 265c0 69.333 5.66699 127.5 17 174.5s28.833 86.667 52.5 119s54.167 58.833 91.5 79.5s82 39.667 134 57s112 34.5 180 51.5s144.333 37.833 229 62.5c52 14 91.833 27.5 119.5 40.5s47.5 29 59.5 48s18.833 42.833 20.5 71.5s2.5 65.667 2.5 111
c0 32.667 -0.833008 60.167 -2.5 82.5s-4.5 41 -8.5 56s-9.5 27.167 -16.5 36.5s-15.5 17.333 -25.5 24c-19.333 12.667 -56.833 22.167 -112.5 28.5s-133.5 9.5 -233.5 9.5c-135.333 0 -220.333 -14.333 -255 -43c-32 -26 -48 -85.667 -48 -179v-105h-204v115
c0 148.667 36.333 253 109 313c36.667 30 88.5 52 155.5 66s151.5 21 253.5 21c55.333 0 103.666 -0.5 144.999 -1.5s77.333 -3 108 -6s56.834 -7 78.501 -12s40.5 -11.167 56.5 -18.5c38.667 -18 70.667 -37.167 96 -57.5s45.666 -45.5 60.999 -75.5
s26.166 -66.5 32.499 -109.5s9.5 -96.167 9.5 -159.5c0 -71.333 -4.66699 -130.5 -14 -177.5s-25.5 -86.5 -48.5 -118.5s-54.333 -58.333 -94 -79s-89.5 -40 -149.5 -58c-33.333 -10 -69 -20.167 -107 -30.5l-115 -31l-113.5 -31.5c-37 -10.667 -71 -21.334 -102 -32.001
s-57.5 -21.167 -79.5 -31.5s-37.333 -20.5 -46 -30.5c-21.333 -25.333 -32 -63.666 -32 -114.999v-139h901v-191h-1105z" />
    <glyph glyph-name="three" unicode="3" horiz-adv-x="1384" 
d="M141 519l200 0.000976562v-149c0 -41.333 4.5 -75 13.5 -101s26.5 -46.333 52.5 -61s62.833 -24.667 110.5 -30s110.167 -8 187.5 -8c70 0 126.167 1.83301 168.5 5.5s75.333 10.167 99 19.5s40.334 22.5 50.001 39.5s16.5 38.5 20.5 64.5c4 30 6 83.667 6 161
c0 43.333 -3.83301 78.333 -11.5 105s-20.5 47.167 -38.5 61.5s-42 24 -72 29s-67 7.5 -111 7.5h-241v187h221c90 0 150.667 14.667 182 44v-1c30.667 30.667 46 96.334 46 197.001c0 34 -0.666992 61.667 -2 83s-3.83301 38.833 -7.5 52.5s-8.33398 24.334 -14.001 32.001
s-12.5 14.834 -20.5 21.501c-15.333 12 -47 21 -95 27s-118 9 -210 9c-66 0 -119.167 -2.5 -159.5 -7.5s-71.5 -13.833 -93.5 -26.5s-36.667 -30 -44 -52s-11 -50 -11 -84v-151h-200v147c0 64.667 9.33301 120.167 28 166.5s48.167 84 88.5 113s92.5 50.333 156.5 64
s141 20.5 231 20.5c58.667 0 109 -0.666992 151 -2s78 -3.66602 108 -6.99902s55.667 -7.83301 77 -13.5s41 -12.834 59 -21.501c28.667 -14.667 53.334 -31.334 74.001 -50.001s37.5 -41.834 50.5 -69.501s22.5 -61.167 28.5 -100.5s9 -86.666 9 -141.999
c0 -54 -3 -99.833 -9 -137.5s-15.167 -69.334 -27.5 -95.001s-28 -46.334 -47 -62.001s-41.833 -28.5 -68.5 -38.5c30.667 -10 57.167 -23.167 79.5 -39.5s40.5 -37.166 54.5 -62.499s24.333 -56 31 -92s10 -78.667 10 -128c0 -66 -3.33301 -122.667 -10 -170
s-17.5 -87.5 -32.5 -120.5s-34.667 -60 -59 -81s-53.833 -38.5 -88.5 -52.5c-72 -25.333 -189.333 -38 -352 -38c-78.667 0 -143.5 1.5 -194.5 4.5s-91.5 8.16699 -121.5 15.5c-28.667 7.33301 -54.834 16.666 -78.501 27.999s-44.5 25.666 -62.5 42.999h1
c-38.667 36 -67 78.667 -85 128s-27 111 -27 185v133z" />
    <glyph glyph-name="four" unicode="4" horiz-adv-x="1384" 
d="M326 529h554v723zM110 337v212l719 938h252v-958h220v-192h-220v-337h-201v337h-770z" />
    <glyph glyph-name="five" unicode="5" horiz-adv-x="1384" 
d="M136 463l200.997 0.00585938v-115c0 -68.667 19 -115.334 57 -140.001h-1c43.333 -25.333 139 -38 287 -38h50c41.333 0 75.5 1.33301 102.5 4s49.667 7.16699 68 13.5s34 14.333 47 24s25.833 21.5 38.5 35.5c6.66699 7.33301 12.167 15.666 16.5 24.999
s7.83301 21.166 10.5 35.499s4.66699 31.833 6 52.5s2 46 2 76v66c0 36 -0.5 66.5 -1.5 91.5s-2.66699 46.833 -5 65.5s-5.5 34.5 -9.5 47.5s-8.66699 25.5 -14 37.5c-9.33301 19.333 -21.166 35.5 -35.499 48.5s-33.333 23.5 -57 31.5s-52.667 13.667 -87 17
s-75.5 5 -123.5 5c-64 0 -116.833 -1.83301 -158.5 -5.5s-74.667 -10.5 -99 -20.5s-41.5 -24.167 -51.5 -42.5s-15.667 -41.833 -17 -70.5h-198v780h996v-192h-797v-346c15.333 14.667 32 26.834 50 36.501s40.167 17.5 66.5 23.5s57.833 10.167 94.5 12.5
s81.334 3.5 134.001 3.5c56 0 103.5 -1.33301 142.5 -4s72.667 -7.16699 101 -13.5s52.833 -14.5 73.5 -24.5s41 -22.333 61 -37c24 -20.667 45.167 -44.334 63.5 -71.001s32.833 -55.334 43.5 -86.001v1c20.667 -59.333 31 -153.333 31 -282
c0 -122.667 -8.33301 -212.334 -25 -269.001v1c-17.333 -64 -47.166 -114.833 -89.499 -152.5s-92.833 -64.5 -151.5 -80.5c-58 -16.667 -147.333 -25 -268 -25c-76.667 0 -140.667 1.83301 -192 5.5s-94.5 10.167 -129.5 19.5s-63.833 21.666 -86.5 36.999
s-43.667 34.666 -63 57.999c-28 32.667 -48.833 69.834 -62.5 111.501s-20.5 87.167 -20.5 136.5v113z" />
    <glyph glyph-name="six" unicode="6" horiz-adv-x="1384" 
d="M1053 567c0 68.667 -17.6689 114.665 -53.002 137.998c-19.333 12.667 -53.666 21.834 -102.999 27.501s-115.666 8.5 -198.999 8.5c-58.667 0 -108.167 -1.83301 -148.5 -5.5s-73.833 -9.66699 -100.5 -18s-47.167 -19.166 -61.5 -32.499s-25 -30 -32 -50
s-11.167 -43.5 -12.5 -70.5s-2 -57.833 -2 -92.5c0 -60.667 2.33301 -107.5 7 -140.5s12 -55.833 22 -68.5c24.667 -31.333 58.667 -53.666 102 -66.999h-1c49.333 -13.333 140.333 -20 273 -20c66 0 119.333 2.16699 160 6.5s72 13.166 94 26.499s36.667 32 44 56
s11 55.667 11 95v207zM150.998 1090c0 75.333 8.16895 139.334 24.502 192.001s42.5 95.5 78.5 128.5s82.167 57 138.5 72s124.5 22.5 204.5 22.5h225c77.333 0 143.5 -6.66699 198.5 -20s100 -33.833 135 -61.5s60.5 -62.667 76.5 -105s24 -92.833 24 -151.5v-97h-201v65
c0 36 -3.66699 65.5 -11 88.5s-22.5 41.167 -45.5 54.5s-56 22.5 -99 27.5s-100.167 7.5 -171.5 7.5c-48 0 -89.333 -0.666992 -124 -2s-64.167 -3.33301 -88.5 -6s-44.666 -6.5 -60.999 -11.5s-29.833 -10.833 -40.5 -17.5c-21.333 -14 -38.5 -36.333 -51.5 -67
s-19.5 -65.334 -19.5 -104.001v-279c17.333 18.667 37 34.5 59 47.5s48.167 23.5 78.5 31.5s66.166 13.667 107.499 17s90 5 146 5c96.667 0 178 -6.16699 244 -18.5s119.333 -31.5 160 -57.5s69.834 -58.667 87.501 -98s26.5 -86 26.5 -140v-263
c0 -108 -22.333 -190.667 -67 -248s-113.334 -93 -206.001 -107h1c-28 -5.33301 -67 -9 -117 -11s-113.333 -3 -190 -3c-98.667 0 -181.334 7.66699 -248.001 23s-120.334 40.5 -161.001 75.5s-69.667 80.667 -87 137s-26 125.5 -26 207.5v666z" />
    <glyph glyph-name="seven" unicode="7" horiz-adv-x="1384" 
d="M169 1295v192h1079v-184l-706 -1303h-239l723 1295h-857z" />
    <glyph glyph-name="eight" unicode="8" horiz-adv-x="1384" 
d="M702 858c72.667 0 130.834 3.66602 174.501 10.999s74.834 17.666 93.501 30.999c36 26.667 54 86.667 54 180c0 27.333 -0.5 50.333 -1.5 69s-2.66699 34.667 -5 48s-5.16602 24.5 -8.49902 33.5s-7.33301 17.5 -12 25.5c-7.33301 10.667 -18.333 19.667 -33 27
s-34.334 13.333 -59.001 18s-54.834 8.16699 -90.501 10.5s-77.834 3.5 -126.501 3.5c-56.667 0 -104 -1.16699 -142 -3.5s-69.167 -6.66602 -93.5 -12.999s-42.666 -15.166 -54.999 -26.499s-21.333 -26.166 -27 -44.499s-8.66699 -40.333 -9 -66
s-0.5 -55.834 -0.5 -90.501c0 -88.667 18.333 -146 55 -172c39.333 -27.333 134.666 -41 285.999 -41zM690 171.999c66 0 119.836 1.83398 161.503 5.50098s75 9.66699 100 18s43.333 19.166 55 32.499s20.5 30 26.5 50c4 14 7.33301 32.667 10 56s4 52 4 86
c0 46 -2.16699 83.333 -6.5 112s-11.166 51.5 -20.499 68.5s-21.333 29.667 -36 38s-32.334 15.166 -53.001 20.499c-40.667 10.667 -121 16 -241 16c-48 0 -88.833 -0.666992 -122.5 -2s-62.167 -3.66602 -85.5 -6.99902s-42.333 -7.83301 -57 -13.5s-27 -12.5 -37 -20.5
c-18.667 -15.333 -31.834 -38 -39.501 -68s-11.5 -72 -11.5 -126c0 -31.333 0.666992 -58.333 2 -81s3.66602 -42.167 6.99902 -58.5s7.5 -30 12.5 -41s11.5 -19.833 19.5 -26.5h-1c9.33301 -10.667 22.166 -19.667 38.499 -27s37 -13.333 62 -18s55 -8.16699 90 -10.5
s75.833 -3.5 122.5 -3.5zM184.003 683c22 36 60.6572 65.6699 115.99 89.0029c-25.333 11.333 -46.833 25.166 -64.5 41.499s-32.167 36.666 -43.5 60.999s-19.666 53.5 -24.999 87.5s-8 74.667 -8 122c0 43.333 1 79.833 3 109.5s5.16699 55.167 9.5 76.5
s10 39.833 17 55.5s15.833 31.5 26.5 47.5c16 24 36.167 44.5 60.5 61.5s55.5 30.667 93.5 41s83.833 17.833 137.5 22.5s118.167 7 193.5 7c92.667 0 168.834 -4.33301 228.501 -13s108 -21.334 145 -38.001s65 -37.334 84 -62.001s34.5 -53 46.5 -85v1
c16 -45.333 24 -116.333 24 -213c0 -47.333 -2.66699 -88.833 -8 -124.5s-13.833 -66.5 -25.5 -92.5s-26.5 -47.833 -44.5 -65.5s-39.333 -31.834 -64 -42.501c29.333 -12 54.333 -26.5 75 -43.5s37.334 -38.5 50.001 -64.5s21.834 -57.167 27.501 -93.5
s8.5 -79.833 8.5 -130.5c0 -53.333 -1.5 -99.166 -4.5 -137.499s-8.16699 -71.5 -15.5 -99.5s-17.166 -52.167 -29.499 -72.5s-27.833 -38.833 -46.5 -55.5c-19.333 -17.333 -41.166 -31.833 -65.499 -43.5s-54.666 -21 -90.999 -28s-80.166 -12 -131.499 -15
s-113.666 -4.5 -186.999 -4.5s-135.666 2.33301 -186.999 7s-95.166 12.334 -131.499 23.001s-67 24.5 -92 41.5s-47.833 37.833 -68.5 62.5c-11.333 14 -20.833 29 -28.5 45s-13.834 35.833 -18.501 59.5s-8 52.667 -10 87s-3 76.5 -3 126.5
c0 116.667 15.667 199.667 47 249z" />
    <glyph glyph-name="nine" unicode="9" horiz-adv-x="1384" 
d="M1213 394c0 -74.667 -7.83496 -138.167 -23.502 -190.5s-41.167 -95 -76.5 -128s-81.333 -57 -138 -72s-126 -22.5 -208 -22.5h-225c-78.667 0 -145.5 6.5 -200.5 19.5s-99.833 33.167 -134.5 60.5s-59.834 62 -75.501 104s-23.5 92.333 -23.5 151v97h201v-65
c0 -37.333 4 -67.5 12 -90.5s23.667 -41 47 -54s56.333 -21.833 99 -26.5s99 -7 169 -7c48.667 0 90.334 0.666992 125.001 2s64.167 3.5 88.5 6.5s44.5 6.83301 60.5 11.5s29.333 10.334 40 17.001c21.333 13.333 38.5 35.666 51.5 66.999s19.5 66 19.5 104v283
c-16.667 -19.333 -35.667 -35.666 -57 -48.999s-47.166 -24 -77.499 -32s-66.5 -13.833 -108.5 -17.5s-92 -5.5 -150 -5.5c-94 0 -173.667 5.83301 -239 17.5s-118.5 30 -159.5 55s-70.833 57.333 -89.5 97s-28 87.5 -28 143.5v265c0 107.333 22.833 189.5 68.5 246.5
s115.167 93.167 208.5 108.5c28 4.66699 66.833 8.33398 116.5 11.001s110.834 4 183.501 4c97.333 0 179.5 -7.66699 246.5 -23s121 -40.333 162 -75s70.5 -80.334 88.5 -137.001s27 -126.334 27 -209.001v-667zM310.998 916c0 -70 17.667 -116.002 53 -138.002
c38 -24 138.667 -36 302 -36c58.667 0 108.334 1.83301 149.001 5.5s74.167 9.5 100.5 17.5s46.666 18.833 60.999 32.5s24.833 30.5 31.5 50.5s10.5 43.5 11.5 70.5s1.5 58.167 1.5 93.5c0 60.667 -2.33301 107.667 -7 141s-11.667 55.666 -21 66.999
c-14 17.333 -29 31.833 -45 43.5s-37.5 20.834 -64.5 27.501s-61.5 11.334 -103.5 14.001s-96.333 4 -163 4c-65.333 0 -118 -2.16699 -158 -6.5s-71 -13.166 -93 -26.499s-36.667 -32 -44 -56s-11 -56 -11 -96v-208z" />
    <glyph glyph-name="colon" unicode=":" horiz-adv-x="692" 
d="M241 0v250h210v-250h-210zM241 811v252h210v-252h-210z" />
    <glyph glyph-name="semicolon" unicode=";" horiz-adv-x="692" 
d="M241 811v252h210v-252h-210zM241 0l0.00195312 250.001h210v-274c0 -58.667 -18.333 -103.5 -55 -134.5s-88.334 -46.5 -155.001 -46.5v126c25.333 2.66699 43.666 8.16699 54.999 16.5s17 21.166 17 38.499v24h-72z" />
    <glyph glyph-name="less" unicode="&#x3c;" horiz-adv-x="1706" 
d="M1445 1004l-960 -391l480.5 -194l479.5 -194v-149l-1184 483v107l1184 488v-150z" />
    <glyph glyph-name="equal" unicode="=" horiz-adv-x="1706" 
d="M1455 499v-134h-1204v134h1204zM1455 862v-134h-1204v134h1204z" />
    <glyph glyph-name="greater" unicode="&#x3e;" horiz-adv-x="1706" 
d="M1445 666v-107l-1184 -483v149l959 388l-480 195.5l-479 195.5v149z" />
    <glyph glyph-name="question" unicode="?" horiz-adv-x="1063" 
d="M368 0v224h200v-224h-200zM368 397l0.00488281 133.996c0 32 2.83301 60 8.5 84s17 46.333 34 67s41.333 40.834 73 60.501s73.5 40.834 125.5 63.501l3 1c1.33301 0.666992 2.83301 1.33398 4.5 2.00098s3.16699 1.33398 4.5 2.00098
c44 19.333 79.833 37.166 107.5 53.499s46.167 31.166 55.5 44.499h-1c11.333 16.667 19.666 41.167 24.999 73.5s8 73.833 8 124.5c0 42.667 -3.16699 77.667 -9.5 105s-17.5 48.666 -33.5 63.999s-37.833 26 -65.5 32s-62.834 9 -105.501 9
c-44.667 0 -83.334 -0.5 -116.001 -1.5s-60.334 -2.5 -83.001 -4.5s-41 -5 -55 -9s-25 -9 -33 -15c-16.667 -13.333 -28.667 -35.166 -36 -65.499s-11 -72.5 -11 -126.5c0 -11.333 0.166992 -21 0.5 -29s0.5 -15 0.5 -21v-45h-198v164c0 60.667 8.16699 112.5 24.5 155.5
s43.166 78.333 80.499 106s86.833 47.834 148.5 60.501s137.834 19 228.501 19c90 0 164.5 -7.16699 223.5 -21.5s104.833 -36.5 137.5 -66.5h-1c65.333 -57.333 98 -162 98 -314c0 -62 -3 -115.333 -9 -160s-16.167 -83.167 -30.5 -115.5s-33.333 -59.333 -57 -81
s-52.834 -40.5 -87.501 -56.5h1c-19.333 -9.33301 -46.333 -21.333 -81 -36c-56.667 -25.333 -100.667 -52.166 -132 -80.499s-47 -56.5 -47 -84.5v-92h-200z" />
    <glyph glyph-name="at" unicode="@" horiz-adv-x="2048" 
d="M1245 716c-11.333 56.667 -33.668 99.833 -67.001 129.5s-74 44.5 -122 44.5c-47.333 0 -91 -11.167 -131 -33.5s-74.5 -53.166 -103.5 -92.499s-51.5 -85.833 -67.5 -139.5s-24 -111.5 -24 -173.5c0 -66.667 15.667 -118.167 47 -154.5s76.333 -54.5 135 -54.5
c34 0 65.833 6.16699 95.5 18.5s56.334 29.166 80.001 50.499s44 46.5 61 75.5s29.5 60.5 37.5 94.5zM1336 973.999l128.995 0.00292969l-141 -571l1 1c-3.33301 -14.667 -6 -26.834 -8 -36.501l-5 -24c-1.33301 -6.33301 -2.33301 -11.5 -3 -15.5s-1 -7.33301 -1 -10
c0 -22 7.5 -39.167 22.5 -51.5s35.833 -18.5 62.5 -18.5c50.667 0 99.334 14.333 146.001 43s87.667 67.5 123 116.5s63.5 105.667 84.5 170s31.5 132.5 31.5 204.5c0 80 -16.667 153.333 -50 220s-79.666 124 -138.999 172s-129.833 85.5 -211.5 112.5
s-170.834 40.5 -267.501 40.5c-126 0 -240.333 -21.5 -343 -64.5s-190.5 -101.333 -263.5 -175s-129.5 -159.5 -169.5 -257.5s-60 -202 -60 -312s19 -206.333 57 -289s96 -155.667 174 -219v1c64.667 -52 141.834 -92.667 231.501 -122s184.834 -44 285.501 -44
c111.333 0 219.333 16.5 324 49.5s204.334 81.833 299.001 146.5l60 -85c-204 -154 -425 -231 -663 -231c-254.667 0 -460.334 61.333 -617.001 184c-103.333 78 -179.666 168.667 -228.999 272s-74 223.666 -74 360.999s28 263.833 84 379.5s140 219.834 252 312.501
c176 146 394 219 654 219c124.667 0 237.167 -18.333 337.5 -55s185.833 -86 256.5 -148s125 -133.833 163 -215.5s57 -167.834 57 -258.501c0 -115.333 -20.5 -218.5 -61.5 -309.5s-101.833 -168.833 -182.5 -233.5c-48 -36 -98.167 -63.5 -150.5 -82.5
s-106.833 -28.5 -163.5 -28.5c-122 0 -190 44 -204 132c-69.333 -88 -158.333 -132 -267 -132c-216 0 -324 112.667 -324 338c0 76.667 12.333 148.667 37 216s58.334 125.666 101.001 174.999s92.5 88.333 149.5 117s117.833 43 182.5 43
c117.333 0 200.333 -44.333 249 -133z" />
    <glyph glyph-name="A" unicode="A" horiz-adv-x="1417" 
d="M424 553h571l-136.5 371l-137.5 371h-25zM13 0l550 1487h291l553 -1487h-208l-138 371h-704l-68.5 -185.5l-67.5 -185.5h-208z" />
    <glyph glyph-name="B" unicode="B" horiz-adv-x="1436" 
d="M376 862l503 -0.000976562c38.667 0 70.667 2.33301 96 7s45.333 14.834 60 30.501s25 38.5 31 68.5s9 70.667 9 122c0 45.333 -3.33301 82.333 -10 111s-16.667 48.667 -30 60c-28.667 22.667 -104 34 -226 34h-433v-433zM376 190.999h509c92.667 0 153 13 181 39
c28.667 26.667 43 98.667 43 216c0 96.667 -16.333 159 -49 187c-33.333 28 -125 42 -275 42h-409v-484zM180 -0.000976562v1487h693c162 0 269.667 -25 323 -75c55.333 -52 83 -153.667 83 -305c0 -48 -2.16699 -89.833 -6.5 -125.5s-11.5 -66.5 -21.5 -92.5
s-23.333 -47.833 -40 -65.5s-37 -32.5 -61 -44.5c30 -12 55.333 -27.167 76 -45.5s37.667 -41.333 51 -69s23 -61.167 29 -100.5s9 -86 9 -140c0 -164.667 -33.667 -276.667 -101 -336c-66.667 -58.667 -197 -88 -391 -88h-643z" />
    <glyph glyph-name="C" unicode="C" horiz-adv-x="1399" 
d="M129 989c0 96 8.66992 176.836 26.0029 242.503s45.833 118.667 85.5 159s91.334 69.5 155.001 87.5s142.167 27 235.5 27h170c92.667 0 171 -8 235 -24s115.833 -41.333 155.5 -76s68.334 -79.334 86.001 -134.001s26.5 -120.667 26.5 -198v-83h-205v60
c0 52.667 -4.33301 96 -13 130s-24.5 61 -47.5 81s-54.667 34 -95 42s-91.833 12 -154.5 12h-112c-42.667 0 -78.5 -1 -107.5 -3s-53.833 -5.5 -74.5 -10.5s-38.334 -11.667 -53.001 -20s-28.667 -18.833 -42 -31.5s-24.333 -25.5 -33 -38.5s-15.5 -30 -20.5 -51
s-8.33301 -48.167 -10 -81.5s-2.5 -76.666 -2.5 -129.999v-412c0 -50.667 0.833008 -92.334 2.5 -125.001s5 -59.834 10 -81.501s11.667 -39.5 20 -53.5s19.5 -27.667 33.5 -41c12 -12 24.333 -22.167 37 -30.5s29 -15 49 -20s45 -8.5 75 -10.5s68.667 -3 116 -3h112
c64 0 116.167 4 156.5 12s72.166 22.667 95.499 44s39.333 50.5 48 87.5s13 84.5 13 142.5c0 18 -0.333008 35.167 -1 51.5s-1.33398 28.833 -2.00098 37.5h205v-115c0 -166.667 -37.333 -283.334 -112 -350.001h1c-72.667 -66.667 -203.334 -100 -392.001 -100h-170
c-93.333 0 -171.833 9 -235.5 27s-115.334 47.167 -155.001 87.5s-68.167 93.333 -85.5 159s-26 146.5 -26 242.5v491z" />
    <glyph glyph-name="D" unicode="D" horiz-adv-x="1536" 
d="M376 182l493.999 0.000976562c68.667 0 124.5 5 167.5 15s76.667 27.167 101 51.5s41 57.166 50 98.499s13.5 93.666 13.5 156.999v468c0 68.667 -5.66699 124.834 -17 168.501s-27.666 76.5 -48.999 98.5c-43.333 44 -132 66 -266 66h-494v-1123zM176.999 0.000976562
l-0.000976562 1487h719c94 0 173.5 -9 238.5 -27s117.833 -46.833 158.5 -86.5s70 -91.5 88 -155.5s27 -142 27 -234v-478c0 -92 -9.16699 -170.167 -27.5 -234.5s-47.666 -116.666 -87.999 -156.999s-93 -69.5 -158 -87.5s-144.5 -27 -238.5 -27h-719z" />
    <glyph glyph-name="E" unicode="E" horiz-adv-x="1309" 
d="M175 0v1487h1055v-192h-857v-435h833v-187h-833v-482h857v-191h-1055z" />
    <glyph glyph-name="F" unicode="F" horiz-adv-x="1214" 
d="M173 0v1487h944v-192h-745v-435h722v-187h-722v-673h-199z" />
    <glyph glyph-name="G" unicode="G" horiz-adv-x="1503" 
d="M121 989c0 96 9.33008 176.832 27.9971 242.499s49.334 118.667 92.001 159s98.5 69.5 167.5 87.5s153.5 27 253.5 27h183c185.333 0 321.833 -32 409.5 -96s131.5 -163.333 131.5 -298v-81h-204v37c0 48 -5.16699 87.833 -15.5 119.5s-28.5 57 -54.5 76
s-61.333 32.5 -106 40.5s-101.334 12 -170.001 12h-128c-51.333 0 -93.833 -1.16699 -127.5 -3.5s-61.834 -6 -84.501 -11s-41.5 -11.833 -56.5 -20.5s-29.5 -19.334 -43.5 -32.001c-12.667 -11.333 -23.5 -23.833 -32.5 -37.5s-16.167 -30.167 -21.5 -49.5v1
c-4.66699 -19.333 -8.33398 -46.666 -11.001 -81.999s-4 -79 -4 -131v-412c0 -52 1.33301 -95.333 4 -130s6.33398 -61.667 11.001 -81v1c12 -40.667 31.833 -71.667 59.5 -93s59.5 -36.666 95.5 -45.999c38 -10.667 108.333 -16 211 -16h128c46 0 84.167 1 114.5 3
s55.833 5.16699 76.5 9.5s37.834 10.333 51.501 18s26.834 17.5 39.501 29.5c12 11.333 22.167 23.333 30.5 36s15 29 20 49s8.5 44.833 10.5 74.5s3 67.167 3 112.5v70h-402v186h606v-262c0 -96 -9.16699 -176.833 -27.5 -242.5s-48.666 -118.667 -90.999 -159
s-98 -69.5 -167 -87.5s-154.167 -27 -255.5 -27h-183c-101.333 0 -186.5 9 -255.5 27s-124.667 47.167 -167 87.5s-72.666 93.333 -90.999 159s-27.5 146.5 -27.5 242.5v491z" />
    <glyph glyph-name="H" unicode="H" horiz-adv-x="1546" 
d="M177 0v1487h198v-625h796v625h198v-1487h-198v671h-796v-671h-198z" />
    <glyph glyph-name="I" unicode="I" horiz-adv-x="526" 
d="M163 0v1487h200v-1487h-200z" />
    <glyph glyph-name="J" unicode="J" horiz-adv-x="1208" 
d="M41 547l200.003 -0.000976562v-43c0 -74.667 4.16699 -134.5 12.5 -179.5s20.166 -77.167 35.499 -96.5c30 -37.333 96 -56 198 -56h115c102.667 0 169 18.667 199 56c15.333 19.333 27.166 51.5 35.499 96.5s12.5 104.833 12.5 179.5v983h199v-1031
c0 -84 -8 -155.833 -24 -215.5s-41.333 -108.667 -76 -147s-79.334 -66.5 -134.001 -84.5s-120.667 -27 -198 -27h-143c-80 0 -147.5 8.83301 -202.5 26.5s-99.5 46.667 -133.5 87s-58.5 93.333 -73.5 159s-22.5 146.834 -22.5 243.501v49z" />
    <glyph glyph-name="K" unicode="K" horiz-adv-x="1370" 
d="M177 0v1487h199v-613h96l294.5 306.5l293.5 306.5h264l-686 -711l190.5 -191l196.5 -197l196.5 -197l189.5 -191h-274l-665 679h-96v-679h-199z" />
    <glyph glyph-name="L" unicode="L" horiz-adv-x="1223" 
d="M174 0v1487h197v-1296h821v-191h-1018z" />
    <glyph glyph-name="M" unicode="M" horiz-adv-x="1919" 
d="M182 0v1487h296l483 -1255l239 628l239 627h298v-1487h-198v1226l-234 -613.5l-233 -612.5h-225l-467 1225v-1225h-198z" />
    <glyph glyph-name="N" unicode="N" horiz-adv-x="1587" 
d="M177 0v1487h277l755 -1243v1243h199v-1487h-277l-755 1245v-1245h-199z" />
    <glyph glyph-name="O" unicode="O" horiz-adv-x="1526" 
d="M718 1315c-51.333 0 -93.502 -1.16699 -126.502 -3.5s-60.833 -6 -83.5 -11s-41.5 -11.833 -56.5 -20.5s-30.167 -19.334 -45.5 -32.001c-13.333 -11.333 -24.666 -24.166 -33.999 -38.499s-16.666 -32.5 -21.999 -54.5s-9.16602 -49.667 -11.499 -83
s-3.5 -74.666 -3.5 -123.999v-411c0 -48 1.16699 -88.333 3.5 -121s6.16602 -60 11.499 -82s12.666 -40.333 21.999 -55s20.666 -28 33.999 -40c14.667 -13.333 29.834 -24.333 45.501 -33s34.834 -15.5 57.501 -20.5s50.667 -8.5 84 -10.5s75 -3 125 -3h90
c50.667 0 93 1 127 3s62.5 5.5 85.5 10.5s42.167 11.833 57.5 20.5s30 19.667 44 33c14 12 25.333 24.667 34 38s15.667 30.833 21 52.5s9 49 11 82s3 74.833 3 125.5v412c0 51.333 -1.16699 93.666 -3.5 126.999s-6.33301 61 -12 83s-13 39.667 -22 53s-20.167 26 -33.5 38
c-14 12 -28.5 22.167 -43.5 30.5s-33.833 15 -56.5 20s-51 8.66699 -85 11s-76.333 3.5 -127 3.5h-90zM130.998 989c0 96 9.32617 176.834 27.9932 242.501s49.334 118.667 92.001 159s98.5 69.5 167.5 87.5s153.833 27 254.5 27h182c202 0 343 -38 423 -114v1
c79.333 -76 119 -210.333 119 -403v-491c0 -95.333 -9.16699 -175.833 -27.5 -241.5s-48.666 -118.834 -90.999 -159.501s-98.166 -70 -167.499 -88s-154.666 -27 -255.999 -27h-182c-101.333 0 -186.666 9 -255.999 27s-125.166 47.167 -167.499 87.5
s-72.666 93.333 -90.999 159s-27.5 146.5 -27.5 242.5v491z" />
    <glyph glyph-name="P" unicode="P" horiz-adv-x="1341" 
d="M1046 1131c0 31.333 -2.66895 57.5 -8.00195 78.5s-16.666 37.833 -33.999 50.5s-42 21.667 -74 27s-74.333 8 -127 8h-430v-541h430c51.333 0 92.833 2.5 124.5 7.5s56.334 13.833 74.001 26.5s29.5 29.5 35.5 50.5s9 47.5 9 79.5v213zM174.998 0v1487h629
c85.333 0 156.666 -6.16699 213.999 -18.5s103.333 -32.5 138 -60.5s59.334 -64.167 74.001 -108.5s22 -98.5 22 -162.5v-219c0 -133.333 -33 -226.333 -99 -279h1c-65.333 -51.333 -182 -77 -350 -77h-431v-562h-198z" />
    <glyph glyph-name="Q" unicode="Q" horiz-adv-x="1526" 
d="M1191 949c0 52 -1.16504 94.834 -3.49805 128.501s-6.33301 61.5 -12 83.5s-13 39.5 -22 52.5s-20.167 25.167 -33.5 36.5c-14 12 -28.5 22.167 -43.5 30.5s-33.833 15 -56.5 20s-50.834 8.66699 -84.501 11s-76.167 3.5 -127.5 3.5h-89c-51.333 0 -93.5 -1 -126.5 -3
s-60.667 -5.5 -83 -10.5s-41.166 -11.833 -56.499 -20.5s-31 -19.667 -47 -33c-13.333 -11.333 -24.5 -23.833 -33.5 -37.5s-16.333 -31.5 -22 -53.5s-9.66699 -49.667 -12 -83s-3.5 -75.333 -3.5 -126v-411c0 -48 1.16699 -88.167 3.5 -120.5
s6.16602 -59.666 11.499 -81.999s12.666 -40.833 21.999 -55.5s20.666 -28 33.999 -40c15.333 -12.667 30.5 -23.334 45.5 -32.001s33.667 -15.5 56 -20.5s50.166 -8.66699 83.499 -11s76 -3.5 128 -3.5h125c58.667 0 104.834 1.16699 138.501 3.5s58.834 5.5 75.501 9.5
l-135 133.5l-132 132.5l129 132l263 -259c2.66699 25.333 4.66699 53.166 6 83.499s2 62.5 2 96.5v445zM131.002 989.001c0 95.333 9.33203 175.832 27.999 241.499s49.167 118.834 91.5 159.501s98 70 167 88s154.167 27 255.5 27h183c201.333 0 342 -38 422 -114v1
c80 -76 120 -210.333 120 -403v-491c0 -42 -1.16699 -79.333 -3.5 -112s-6.16602 -61.834 -11.499 -87.501s-12.333 -48.334 -21 -68.001s-19.334 -37.167 -32.001 -52.5l89 -88l-133 -136l-93 94c-14.667 -12.667 -31.167 -23.167 -49.5 -31.5s-40.5 -15 -66.5 -20
s-56.833 -8.66699 -92.5 -11s-78.5 -3.5 -128.5 -3.5h-183c-102 0 -187.667 9.16699 -257 27.5s-125.166 47.833 -167.499 88.5s-72.5 93.834 -90.5 159.501s-27 145.834 -27 240.501v491z" />
    <glyph glyph-name="R" unicode="R" horiz-adv-x="1432" 
d="M374 1295l0.000976562 -541.002h443c58.667 0 106 3 142 9s63.667 16.333 83 31s32.166 33.834 38.499 57.501s9.5 53.167 9.5 88.5v169c0 35.333 -3 64.833 -9 88.5s-18.667 42.834 -38 57.501s-46.833 25 -82.5 31s-83.5 9 -143.5 9h-443zM176.001 -0.00195312
l0.00390625 1487h673c85.333 0 156.666 -6.16699 213.999 -18.5s103.166 -32.5 137.499 -60.5s58.833 -64.167 73.5 -108.5s22 -98.5 22 -162.5v-219c0 -134 -46.667 -220.667 -140 -260c24.667 -11.333 45.834 -24.666 63.501 -39.999s32.167 -34.333 43.5 -57
s19.666 -49.667 24.999 -81s8 -68.666 8 -111.999v-368h-206v318c0 50 -3.16699 91 -9.5 123s-17.833 57.167 -34.5 75.5s-39.334 30.833 -68.001 37.5s-65.334 10 -110.001 10h-494v-564h-198z" />
    <glyph glyph-name="S" unicode="S" horiz-adv-x="1460" 
d="M136 511l199.998 -0.000976562v-47c0 -58.667 2.66699 -105.667 8 -141s14.5 -63 27.5 -83s30.667 -34.333 53 -43s50.833 -15 85.5 -19c25.333 -3.33301 62.833 -5.5 112.5 -6.5s111.834 -1.5 186.501 -1.5c78.667 0 139.667 5 183 15s75 26 95 48
c10.667 11.333 18.5 31.333 23.5 60s7.5 68.334 7.5 119.001s-2 90.834 -6 120.501s-11.167 52.5 -21.5 68.5s-24.833 26.667 -43.5 32s-43 9 -73 11l-446 35c-70 5.33301 -128.667 16.333 -176 33s-85.5 40.834 -114.5 72.501s-49.833 72 -62.5 121s-19 108.5 -19 178.5
c0 118 19.333 210.5 58 277.5s101 109.167 187 126.5c26.667 5.33301 63.167 9.5 109.5 12.5s103.833 4.5 172.5 4.5h52c78 0 142.833 -1.66699 194.5 -5s94.834 -9 129.501 -17s63.5 -18.333 86.5 -31s45.5 -28.334 67.5 -47.001c29.333 -25.333 51.5 -61 66.5 -107
s22.5 -102.333 22.5 -169c0 -18.667 -0.333008 -36.167 -1 -52.5s-1.33398 -28.5 -2.00098 -36.5h-199v55c0 45.333 -2 81 -6 107s-11 45.833 -21 59.5s-23.5 23 -40.5 28s-38.167 9.5 -63.5 13.5c-51.333 8 -148 12 -290 12c-146 0 -235.333 -15 -268 -45
c-17.333 -15.333 -30.166 -39 -38.499 -71s-12.5 -71 -12.5 -117c0 -40 2.83301 -73.167 8.5 -99.5s13.834 -46.833 24.501 -61.5v1c11.333 -13.333 27.666 -24.166 48.999 -32.499s49 -13.5 83 -15.5l455 -38c63.333 -5.33301 116.666 -16.5 159.999 -33.5
s78.333 -41.333 105 -73s45.834 -71.334 57.501 -119.001s17.5 -104.5 17.5 -170.5c0 -50 -1.66699 -92.833 -5 -128.5s-8.33301 -66.667 -15 -93s-15.334 -49.166 -26.001 -68.499s-23.334 -38 -38.001 -56c-20 -22 -41 -40.167 -63 -54.5s-50.333 -25.833 -85 -34.5
s-78.5 -14.834 -131.5 -18.501s-120.167 -5.5 -201.5 -5.5h-72c-68.667 0 -126.167 1.5 -172.5 4.5s-85.666 8.16699 -117.999 15.5s-59.666 17.166 -81.999 29.499s-43.5 27.833 -63.5 46.5h1c-38.667 32.667 -67 76.5 -85 131.5s-27 125.5 -27 211.5v91z" />
    <glyph glyph-name="T" unicode="T" horiz-adv-x="1069" 
d="M-27 1295v192h1123v-192h-463v-1295h-199v1295h-461z" />
    <glyph glyph-name="U" unicode="U" horiz-adv-x="1532" 
d="M163 1487l199.999 -0.00195312v-969c0 -90 4.66699 -153.667 14 -191v1c5.33301 -16.667 11.833 -31.667 19.5 -45s17.167 -25.333 28.5 -36h-1c12.667 -11.333 25 -20.666 37 -27.999s27.333 -13.333 46 -18s42.334 -7.83398 71.001 -9.50098s66 -2.5 112 -2.5h152
c45.333 0 82.166 0.833008 110.499 2.5s51.666 4.66699 69.999 9s34 10.333 47 18s26.5 17.167 40.5 28.5h-1c12 10.667 21.833 22.167 29.5 34.5s13.834 28.333 18.501 48s7.83398 44.5 9.50098 74.5s2.5 68 2.5 114v969h200v-989c0 -95.333 -9 -175.666 -27 -240.999
s-47.167 -118.5 -87.5 -159.5s-93.333 -70.5 -159 -88.5s-146.167 -27 -241.5 -27h-176c-96 0 -176.833 9 -242.5 27s-118.667 47.333 -159 88s-69.333 93.834 -87 159.501s-26.5 146.167 -26.5 241.5v989z" />
    <glyph glyph-name="V" unicode="V" horiz-adv-x="1331" 
d="M-9 1487h214l448 -1259l225 630l225 629h213l-545 -1487h-235z" />
    <glyph glyph-name="W" unicode="W" horiz-adv-x="2062" 
d="M62 1487h205l317 -1197l159 600l159 597h256l321 -1197l158 599.5l158 597.5h207l-406 -1487h-234l-332 1220l-163 -610.5l-163 -609.5h-242z" />
    <glyph glyph-name="X" unicode="X" horiz-adv-x="1305" 
d="M-35 0l582 780l-129.5 174.5l-133.5 179.5l-133.5 179l-129.5 174h233l399 -554l197 277.5l200 276.5h236l-527 -705l287.5 -391l291.5 -391h-231l-452 631l-229 -316l-229 -315h-232z" />
    <glyph glyph-name="Y" unicode="Y" horiz-adv-x="1219" 
d="M707 0h-196v654l-153.5 205l-157 211.5l-156.5 211.5l-152 205h237l479 -661l241 331.5l238 329.5h238l-618 -830v-657z" />
    <glyph glyph-name="Z" unicode="Z" horiz-adv-x="1331" 
d="M92 0v199l909 1106h-867v182h1097v-195l-904 -1101h904v-191h-1139z" />
    <glyph glyph-name="bracketleft" unicode="[" horiz-adv-x="664" 
d="M138 1487h454v-192h-260v-1102h260v-193h-454v1487z" />
    <glyph glyph-name="backslash" unicode="\" horiz-adv-x="545" 
d="M638 -185h-177l-527 1690h178z" />
    <glyph glyph-name="bracketright" unicode="]" horiz-adv-x="664" 
d="M526 1487v-1487h-454v193h259v1102h-259v192h454z" />
    <glyph glyph-name="asciicircum" unicode="^" horiz-adv-x="2048" 
d="M1100 1457l552 -580h-191l-437 434l-219.5 -217l-219.5 -217h-192l555 580h152z" />
    <glyph glyph-name="underscore" unicode="_" 
d="M1030 -334v-136h-1036v136h1036z" />
    <glyph glyph-name="grave" unicode="`" 
d="M533 1146l-292 377h198l227 -377h-133z" />
    <glyph glyph-name="a" unicode="a" horiz-adv-x="1157" 
d="M823 388c0 42 -23.168 72.832 -69.501 92.499s-120.5 29.5 -222.5 29.5c-44.667 0 -81.834 -2 -111.501 -6s-53.167 -11.833 -70.5 -23.5s-29.666 -28.167 -36.999 -49.5s-11 -49 -11 -83c0 -38 3.33301 -68.833 10 -92.5s19.167 -42.167 37.5 -55.5
s43.5 -22.333 75.5 -27s73 -7 123 -7c90.667 0 159.334 9.83301 206.001 29.5s70 47.834 70 84.501v108zM836.999 70.999c-30.667 -30 -70.4951 -51.667 -119.495 -65s-112.5 -20 -190.5 -20c-84 0 -153.167 5.66699 -207.5 17s-97.5 30.333 -129.5 57s-54.333 62 -67 106
s-19 98.667 -19 164c0 74.667 6.66699 134.5 20 179.5s36 79.667 68 104s74.667 40.5 128 48.5s119.666 12 198.999 12c78.667 0 142 -5.5 190 -16.5s86 -28.167 114 -51.5v127c0 40.667 -3 72.834 -9 96.501s-18.5 41.667 -37.5 54s-46.5 20.333 -82.5 24
s-84.333 5.5 -145 5.5c-42.667 0 -77.834 -1.33301 -105.501 -4s-49.834 -9 -66.501 -19s-28.334 -24.333 -35.001 -43s-10.334 -44 -11.001 -76h-189v43c0 46.667 7.16699 86.667 21.5 120s37.166 60.666 68.499 81.999s72.333 36.833 123 46.5s112.334 14.5 185.001 14.5
c56 0 104.833 -1 146.5 -3s77.667 -5.33301 108 -10s56 -11 77 -19s38.5 -17.667 52.5 -29c16.667 -13.333 30.667 -27 42 -41s20.5 -31 27.5 -51s12 -45 15 -75s4.5 -67.667 4.5 -113v-736h-176v71z" />
    <glyph glyph-name="b" unicode="b" horiz-adv-x="1176" 
d="M346 448c0 -100 23.333 -172.667 70 -218s121.334 -68 224.001 -68c92.667 0 153.667 15.667 183 47c30 32 45 110.333 45 235v175c0 62 -3.16699 111.667 -9.5 149s-18 65.833 -35 85.5s-40.333 32.5 -70 38.5s-67.5 9 -113.5 9
c-102.667 0 -177.334 -22.667 -224.001 -68s-70 -118 -70 -218v-167zM157 0v1487h189v-522c32 36 72.333 63.667 121 83s108.334 29 179.001 29c77.333 0 142.666 -7.83301 195.999 -23.5s96.5 -40.5 129.5 -74.5s56.667 -77.833 71 -131.5s21.5 -118.5 21.5 -194.5v-243
c0 -76.667 -7.33301 -141.834 -22 -195.501s-38.5 -97.5 -71.5 -131.5s-76.167 -58.667 -129.5 -74s-118.333 -23 -195 -23c-76 0 -138.333 9 -187 27s-88 48 -118 90v-103h-184z" />
    <glyph glyph-name="c" unicode="c" horiz-adv-x="1157" 
d="M544 -14c-79.333 0 -146.338 7.33496 -201.005 22.002s-99.167 38.667 -133.5 72s-59.166 77 -74.499 131s-23 120.333 -23 199v243c0 78.667 7.66699 145.167 23 199.5s40 98 74 131s78.333 56.833 133 71.5s121.334 22 200.001 22h71c74 0 138 -7.16699 192 -21.5
s98.5 -37.333 133.5 -69s61.167 -72.5 78.5 -122.5s26.666 -110.667 27.999 -182l-195 -1c-1.33301 45.333 -5.66602 82.166 -12.999 110.499s-19.666 50.5 -36.999 66.5s-41.166 26.833 -71.499 32.5s-68.833 8.5 -115.5 8.5h-71c-98 0 -161.667 -15.667 -191 -47
c-28 -30 -42 -107.667 -42 -233v-175c0 -126 14.333 -204.333 43 -235c29.333 -31.333 92.666 -47 189.999 -47h71c47.333 0 86.333 3.16699 117 9.5s54.834 17.833 72.501 34.5s29.834 39 36.501 67s10 63.667 10 107v37h196v-39c0 -70 -8.16699 -129.667 -24.5 -179
s-41.833 -89.833 -76.5 -121.5s-79.167 -54.834 -133.5 -69.501s-119.5 -22 -195.5 -22h-71z" />
    <glyph glyph-name="d" unicode="d" horiz-adv-x="1176" 
d="M829 615c0 100 -23.333 172.665 -70 217.998s-121 68 -223 68c-94 0 -155.333 -16 -184 -48v1c-29.333 -33.333 -44 -111.666 -44 -234.999v-175c0 -123.333 14.667 -201.666 44 -234.999v1c28.667 -32 90 -48 184 -48c102 0 176.333 22.667 223 68s70 118 70 218v167z
M834 100.998c-30 -38.667 -69.332 -67.501 -117.999 -86.501s-110.334 -28.5 -185.001 -28.5c-76 0 -140.667 7.83301 -194 23.5s-96.666 40.5 -129.999 74.5s-57.5 77.833 -72.5 131.5s-22.5 118.5 -22.5 194.5v243c0 76.667 7.5 141.834 22.5 195.501
s39.333 97.5 73 131.5s77 58.667 130 74s117.5 23 193.5 23c72.667 0 132.167 -9.33301 178.5 -28s86.166 -46.667 119.499 -84v522h190v-1487h-185v101z" />
    <glyph glyph-name="e" unicode="e" horiz-adv-x="1157" 
d="M544 -14c-79.333 0 -146.333 7.33398 -201 22.001s-99.167 38.667 -133.5 72s-59.166 77 -74.499 131s-23 120.333 -23 199v243c0 78.667 7.66699 145.167 23 199.5s40 98 74 131s78.333 56.833 133 71.5s121.334 22 200.001 22h71c80 0 147.5 -7.5 202.5 -22.5
s99.5 -39.333 133.5 -73s58.5 -77.334 73.5 -131.001s22.5 -119.5 22.5 -197.5v-174l-737 -1c-0.666992 -4 -1 -8.66699 -1 -14v-54c0 -51.333 3 -93 9 -125s17.667 -57.167 35 -75.5s41.166 -30.833 71.499 -37.5s70.166 -10 119.499 -10h71c44 0 80.333 2.5 109 7.5
s51.834 14 69.501 27s30.667 31 39 54s14.166 52.833 17.499 89.5h196c-4.66699 -64.667 -16 -119.5 -34 -164.5s-44.167 -81.5 -78.5 -109.5s-77.5 -48.333 -129.5 -61s-114.333 -19 -187 -19h-71zM309 651.001l540.001 0.000976562v20c0 46.667 -3.33301 84.667 -10 114
s-18.667 52.5 -36 69.5s-41.333 28.667 -72 35s-70 9.5 -118 9.5h-71c-46.667 0 -85 -3 -115 -9s-53.833 -17.333 -71.5 -34s-29.834 -39.834 -36.501 -69.501s-10 -68.167 -10 -115.5v-20z" />
    <glyph glyph-name="f" unicode="f" horiz-adv-x="688" 
d="M36 895l-0.000976562 168.001l143 1c0 6 -0.166992 13 -0.5 21s-0.5 17.333 -0.5 28c0 66 5.66699 122.667 17 170s29.666 86.166 54.999 116.499s58.833 52.5 100.5 66.5s92.834 21 153.501 21c56.667 0 119.667 -3 189 -9v-180c-16 4 -26 6 -30 6h-7
c-22.667 0 -44.667 0.5 -66 1.5s-36 1.5 -44 1.5c-38 0 -68.667 -2.66699 -92 -8s-40.666 -13.333 -51.999 -24c-21.333 -19.333 -32 -73.333 -32 -162v-50h323v-168h-323v-895h-190v895h-144z" />
    <glyph glyph-name="g" unicode="g" horiz-adv-x="1204" 
d="M860 615c0 100 -23.332 172.667 -69.999 218s-121.334 68 -224.001 68c-92.667 0 -154.334 -16.333 -185.001 -49c-30 -32 -45 -109.667 -45 -233v-175c0 -124 15 -202 45 -234s91.667 -48 185 -48c102.667 0 177.334 22.667 224.001 68s70 118 70 218v167zM1049 1063
v-1032c0 -78 -7.33301 -143.833 -22 -197.5s-38.667 -97.334 -72 -131.001s-76.666 -57.834 -129.999 -72.501s-118.333 -22 -195 -22h-70c-69.333 0 -129.166 6 -179.499 18s-92.5 31.833 -126.5 59.5s-60.167 64 -78.5 109s-29.833 100.5 -34.5 166.5h193
c4 -37.333 10.5 -67.333 19.5 -90s22 -40.334 39 -53.001s39.167 -21.167 66.5 -25.5s61.666 -6.5 102.999 -6.5h68c41.333 0 76.5 3.16699 105.5 9.5s52.833 16.166 71.5 29.499s32.167 30.666 40.5 51.999s12.5 46.666 12.5 75.999v145c-32 -36 -72.333 -63.667 -121 -83
s-108.334 -29 -179.001 -29c-76.667 0 -141.5 7.66699 -194.5 23s-96 40 -129 74s-56.833 77.833 -71.5 131.5s-22 118.834 -22 195.501v243c0 76.667 7.33301 141.834 22 195.501s38.5 97.5 71.5 131.5s76 58.667 129 74s117.833 23 194.5 23
c74.667 0 136.667 -9.33301 186 -28s89 -49 119 -91v105h184z" />
    <glyph glyph-name="h" unicode="h" horiz-adv-x="1180" 
d="M154 0v1487h184v-516c60 70.667 165 106 315 106c70.667 0 130.334 -7 179.001 -21s88.167 -36.333 118.5 -67s52.166 -70.5 65.499 -119.5s20 -108.5 20 -178.5v-691h-191v659c0 50 -2.83301 90.667 -8.5 122s-16.334 55.833 -32.001 73.5s-37.167 29.834 -64.5 36.501
s-62.666 10 -105.999 10c-100 0 -173.333 -22.833 -220 -68.5s-70 -118.167 -70 -217.5v-615h-190z" />
    <glyph glyph-name="i" unicode="i" horiz-adv-x="479" 
d="M145 1277v210h189v-210h-189zM145 0v1063h189v-1063h-189z" />
    <glyph glyph-name="j" unicode="j" horiz-adv-x="508" 
d="M174 1277v210h192v-210h-192zM366 -130c0 -174.667 -75.6689 -262 -227.002 -262c-11.333 0 -24.666 0.666992 -39.999 2s-32.333 3.33301 -51 6l-1 156h72c10 0 18.333 1.66699 25 5s12.334 11 17.001 23s8 29.833 10 53.5s3 56.167 3 97.5v1112h192v-1193z" />
    <glyph glyph-name="k" unicode="k" horiz-adv-x="991" 
d="M154 0v1487h189v-823h19l167.5 199.5l167.5 199.5h223l-403 -475l117.5 -144.5l122 -150l122 -150l117.5 -143.5h-243l-392 486h-18v-486h-189z" />
    <glyph glyph-name="l" unicode="l" horiz-adv-x="479" 
d="M145 0v1487h189v-1487h-189z" />
    <glyph glyph-name="m" unicode="m" horiz-adv-x="1810" 
d="M185 0l0.00195312 1063h186v-87c57.333 67.333 153 101 287 101c82.667 0 149 -11.667 199 -35s89 -60 117 -110c31.333 52 71.5 89.167 120.5 111.5s111.5 33.5 187.5 33.5c70 0 129 -6.66699 177 -20s86.833 -35.166 116.5 -65.499s50.834 -70.166 63.501 -119.499
s19 -109.666 19 -180.999v-691h-190v643c0 52.667 -2.66699 95.834 -8 129.501s-15.333 60 -30 79s-34.834 32 -60.501 39s-58.834 10.5 -99.501 10.5c-88 0 -152 -22.667 -192 -68s-60 -118 -60 -218v-615h-186v713c0 40 -3.16699 72.167 -9.5 96.5
s-16.833 43.333 -31.5 57s-34.5 22.834 -59.5 27.501s-55.833 7 -92.5 7c-90.667 0 -157.334 -23.167 -200.001 -69.5s-64 -118.5 -64 -216.5v-615h-190z" />
    <glyph glyph-name="n" unicode="n" horiz-adv-x="1180" 
d="M154 0v1063h184v-92c60 70.667 165 106 315 106c70.667 0 130.334 -7 179.001 -21s88.167 -36.333 118.5 -67s52.166 -70.5 65.499 -119.5s20 -108.5 20 -178.5v-691h-191v659c0 50 -2.83301 90.667 -8.5 122s-16.334 55.833 -32.001 73.5s-37.167 29.834 -64.5 36.501
s-62.666 10 -105.999 10c-100 0 -173.333 -23 -220 -69s-70 -118.333 -70 -217v-615h-190z" />
    <glyph glyph-name="o" unicode="o" horiz-adv-x="1157" 
d="M849 619c0 123.333 -14.666 200.667 -43.999 232c-30 32 -94 48 -192 48h-71c-98 0 -161.667 -15.667 -191 -47c-28 -30 -42 -107.667 -42 -233v-175c0 -126 14.333 -204.333 43 -235c29.333 -31.333 92.666 -47 189.999 -47h71c98 0 162 16 192 48
c29.333 31.333 44 109.333 44 234v175zM544.001 -13.999c-79.333 0 -146.334 7.33398 -201.001 22.001s-99.167 38.667 -133.5 72s-59.166 77 -74.499 131s-23 120.333 -23 199v243c0 78.667 7.66699 145.167 23 199.5s40 98 74 131s78.333 56.833 133 71.5
s121.334 22 200.001 22h71c80 0 147.5 -7.5 202.5 -22.5s99.5 -39.333 133.5 -73s58.5 -77.334 73.5 -131.001s22.5 -119.5 22.5 -197.5v-243c0 -78.667 -7.66699 -145 -23 -199s-40 -97.667 -74 -131s-78.333 -57.333 -133 -72s-121.334 -22 -200.001 -22h-71z" />
    <glyph glyph-name="p" unicode="p" horiz-adv-x="1176" 
d="M346 448c0 -100 23.333 -172.667 70 -218s121.334 -68 224.001 -68c92.667 0 153.667 15.667 183 47c30 32 45 110.333 45 235v175c0 62 -3.16699 111.667 -9.5 149s-18 65.833 -35 85.5s-40.333 32.5 -70 38.5s-67.5 9 -113.5 9
c-102.667 0 -177.334 -22.667 -224.001 -68s-70 -118 -70 -218v-167zM157 1063l184.002 0.000976562v-105c30 42 69.667 72.333 119 91s111.333 28 186 28c77.333 0 142.666 -7.83301 195.999 -23.5s96.5 -40.5 129.5 -74.5s56.667 -77.833 71 -131.5
s21.5 -118.5 21.5 -194.5v-243c0 -76.667 -7.33301 -141.834 -22 -195.501s-38.5 -97.5 -71.5 -131.5s-76.167 -58.667 -129.5 -74s-118.333 -23 -195 -23c-70.667 0 -130.334 9.66699 -179.001 29s-89 47 -121 83v-490h-189v1455z" />
    <glyph glyph-name="q" unicode="q" horiz-adv-x="1176" 
d="M829 615c0 100 -23.333 172.665 -70 217.998s-121 68 -223 68c-94 0 -155.333 -16 -184 -48v1c-29.333 -33.333 -44 -111.666 -44 -234.999v-175c0 -123.333 14.667 -201.666 44 -234.999v1c28.667 -32 90 -48 184 -48c102 0 176.333 22.667 223 68s70 118 70 218v167z
M1019 1063v-1455h-190v490c-31.333 -39.333 -70.333 -67.833 -117 -85.5s-107 -26.5 -181 -26.5c-76 0 -140.667 7.83301 -194 23.5s-96.666 40.5 -129.999 74.5s-57.5 77.833 -72.5 131.5s-22.5 118.5 -22.5 194.5v243c0 76.667 7.5 141.834 22.5 195.501
s39.333 97.5 73 131.5s77 58.667 130 74s117.5 23 193.5 23s138.167 -9 186.5 -27s87.166 -48.333 116.499 -91v104h185z" />
    <glyph glyph-name="r" unicode="r" horiz-adv-x="958" 
d="M151 0l0.00292969 1063h186v-85c26 36 60 61.5 102 76.5s95 22.5 159 22.5c58.667 0 108.5 -7 149.5 -21s74.167 -36.333 99.5 -67s43.833 -70.5 55.5 -119.5s17.5 -108.5 17.5 -178.5v-28h-191v50c0 38.667 -2.5 70.167 -7.5 94.5s-13.833 43.5 -26.5 57.5
s-29.834 23.5 -51.501 28.5s-48.834 7.5 -81.501 7.5c-38.667 0 -71.834 -5.33301 -99.501 -16s-50.5 -27.5 -68.5 -50.5s-31.167 -52.667 -39.5 -89s-12.5 -79.833 -12.5 -130.5v-615h-191z" />
    <glyph glyph-name="s" unicode="s" horiz-adv-x="1194" 
d="M116 343l192.995 0.00195312v-42c0 -56 16.333 -94 49 -114h-1c35.333 -21.333 110.333 -32 225 -32c126.667 0 203.667 10.667 231 32c25.333 20 38 61 38 123c0 61.333 -10.667 101 -32 119c-9.33301 7.33301 -21.666 13.5 -36.999 18.5s-35.666 9 -60.999 12
s-56.5 5.33301 -93.5 7s-81.167 3.5 -132.5 5.5c-70.667 2.66699 -126.834 6.16699 -168.501 10.5s-69.834 11.166 -84.501 20.499v-1c-21.333 11.333 -39.5 24.833 -54.5 40.5s-27.167 34.167 -36.5 55.5s-16.166 45.833 -20.499 73.5s-6.5 59.5 -6.5 95.5
c0 120 31.667 202 95 246c60.667 42.667 191.334 64 392.001 64c157.333 0 264.333 -20.333 321 -61h-1c60.667 -42 91 -121 91 -237h-191v29c0 19.333 -3.83301 35.5 -11.5 48.5s-21.667 23.333 -42 31s-48.166 13.167 -83.499 16.5s-80.666 5 -135.999 5
c-52 0 -93.833 -1.5 -125.5 -4.5s-56.334 -9.5 -74.001 -19.5s-29.5 -24.333 -35.5 -43s-9 -43.667 -9 -75c0 -33.333 2 -57.833 6 -73.5s12.333 -26.167 25 -31.5v1c14 -8.66699 39.833 -15.5 77.5 -20.5s85.834 -7.5 144.501 -7.5c95.333 0 170.833 -4.16699 226.5 -12.5
s95.167 -17.166 118.5 -26.499c25.333 -12.667 46.833 -27.167 64.5 -43.5s31.834 -35.5 42.501 -57.5s18.334 -47.333 23.001 -76s7 -61.667 7 -99c0 -39.333 -2.33301 -73.5 -7 -102.5s-12.334 -54.833 -23.001 -77.5s-24.834 -42.834 -42.501 -60.501
s-39.5 -34.5 -65.5 -50.5c-23.333 -14.667 -61.166 -25.5 -113.499 -32.5s-123.5 -10.5 -213.5 -10.5c-186 0 -310.333 22.333 -373 67c-63.333 45.333 -95 126.666 -95 243.999v46z" />
    <glyph glyph-name="t" unicode="t" horiz-adv-x="1010" 
d="M49 895l-0.00195312 168.003h125v231h191v-231h502v-168h-502v-545c0 -76.667 11.333 -127.334 34 -152.001v1c22.667 -24.667 68 -37 136 -37c35.333 0 64 2.83301 86 8.5s39 15.5 51 29.5s20.167 33.167 24.5 57.5s6.5 55.166 6.5 92.499v50h192v-28
c0 -74.667 -5.66699 -136.834 -17 -186.501s-31.5 -89.167 -60.5 -118.5s-68.5 -50.166 -118.5 -62.499s-114 -18.5 -192 -18.5c-62 0 -114.167 6.66699 -156.5 20s-76.666 35.166 -102.999 65.499s-45.166 70 -56.499 119s-17 109.5 -17 181.5v523h-125z" />
    <glyph glyph-name="u" unicode="u" horiz-adv-x="1180" 
d="M1028 1063l-0.00195312 -1063h-185v91c-30.667 -36.667 -72 -63.334 -124 -80.001s-116.333 -25 -193 -25c-70 0 -129.333 7 -178 21s-88.167 36.333 -118.5 67s-52.166 70.5 -65.499 119.5s-20 108.5 -20 178.5v691h190v-659c0 -50 3 -90.833 9 -122.5
s16.833 -56.334 32.5 -74.001s37.334 -29.667 65.001 -36s63.5 -9.5 107.5 -9.5c100 0 172.833 22.833 218.5 68.5s68.5 118.167 68.5 217.5v615h193z" />
    <glyph glyph-name="v" unicode="v" horiz-adv-x="967" 
d="M-1 1063h194l290 -839l145.5 419.5l145.5 419.5h189l-366 -1063h-225z" />
    <glyph glyph-name="w" unicode="w" horiz-adv-x="1597" 
d="M54 1063h182l220 -826l110.5 414.5l109.5 411.5h239l223 -826l110 414.5l110 411.5h185l-288 -1063h-238l-221 825l-112 -413.5l-112 -411.5h-234z" />
    <glyph glyph-name="x" unicode="x" horiz-adv-x="1036" 
d="M10 0l402 567l-86.5 122l-89.5 126.5l-89.5 126l-86.5 121.5h220l236 -343l118.5 171.5l117.5 171.5h219l-348 -495l99 -139l102.5 -145l102.5 -145l99 -139h-219l-291 417l-142 -208.5l-142 -208.5h-222z" />
    <glyph glyph-name="y" unicode="y" horiz-adv-x="999" 
d="M32 1063h193.998l290 -839l144.5 420l144.5 419h191l-395 -1140c-22 -62.667 -43.833 -114.667 -65.5 -156s-45.167 -74.333 -70.5 -99s-53.166 -42 -83.499 -52s-65.166 -15 -104.499 -15c-12 0 -26 0.833008 -42 2.5s-35.333 4.16699 -58 7.5l1 171
c9.33301 -1.33301 19.333 -2.33301 30 -3s22.667 -1 36 -1c20.667 0 39 2.16699 55 6.5s30.333 12 43 23s24 25.5 34 43.5s20 41 30 69l28 80h-31z" />
    <glyph glyph-name="z" unicode="z" horiz-adv-x="1057" 
d="M111 0v192l610 692h-580v179h828v-168l-632 -719h632v-176h-858z" />
    <glyph glyph-name="braceleft" unicode="{" 
d="M864 1333l-54.9971 0.00488281c-39.333 0 -71.666 -2.83301 -96.999 -8.5s-45.5 -16.834 -60.5 -33.501s-25.5 -39.834 -31.5 -69.501s-9 -68.5 -9 -116.5v-235c0 -50.667 -3 -94.5 -9 -131.5s-15.167 -68.667 -27.5 -95s-28.166 -48.166 -47.499 -65.499
s-42.333 -31.666 -69 -42.999c28 -12.667 51.667 -27.667 71 -45s35.166 -39 47.499 -65s21.166 -57.333 26.499 -94s8 -80.334 8 -131.001v-234c0 -48 2.83301 -86.833 8.5 -116.5s15.5 -52.834 29.5 -69.501s33.333 -27.834 58 -33.501s56 -8.5 94 -8.5
c4 0 12.667 0.333008 26 1s25.666 1 36.999 1v-143h-65c-66 0 -121.167 5.5 -165.5 16.5s-79.833 30.667 -106.5 59s-45.667 67 -57 116s-17 111.5 -17 187.5v237c0 47.333 -3.83301 87.166 -11.5 119.499s-20.334 58.333 -38.001 78s-40.834 33.834 -69.501 42.501
s-64.334 13 -107.001 13c-4 0 -12.667 -0.333008 -26 -1s-25.666 -1 -36.999 -1v145c14.667 0 28 -0.333008 40 -1s19.667 -1 23 -1c42 0 77.333 4.33301 106 13s52 22.834 70 42.501s30.833 45.667 38.5 78s11.5 72.166 11.5 119.499v235c0 76 5.66699 138.667 17 188
s30.333 88.166 57 116.499s62.167 48.166 106.5 59.499s99.5 17 165.5 17h65v-143z" />
    <glyph glyph-name="bar" unicode="|" 
d="M585 1561v-2031h-144v2031h144z" />
    <glyph glyph-name="braceright" unicode="}" 
d="M573 860c0 -47.333 3.83203 -87.1641 11.499 -119.497s20.5 -58.333 38.5 -78s41.333 -33.834 70 -42.501s64 -13 106 -13c4 0 12.667 0.333008 26 1s25.666 1 36.999 1v-145c-15.333 0 -28.833 0.333008 -40.5 1s-19.167 1 -22.5 1c-42.667 0 -78.5 -4.33301 -107.5 -13
s-52.167 -23 -69.5 -43s-29.833 -46.167 -37.5 -78.5s-11.5 -71.833 -11.5 -118.5v-237c0 -150 -24.667 -250.667 -74 -302h1c-48 -51.333 -139 -77 -273 -77h-65v143h57c41.333 0 74.833 3.16699 100.5 9.5s45.5 17.833 59.5 34.5s23.5 39.667 28.5 69s7.5 67 7.5 113v234
c0 53.333 2.66699 98.333 8 135s14 67.667 26 93s27.833 46.166 47.5 62.499s43.834 31.166 72.501 44.499c-29.333 13.333 -53.833 28.333 -73.5 45s-35.5 37.834 -47.5 63.501s-20.5 56.667 -25.5 93s-7.5 80.833 -7.5 133.5v235c0 48.667 -2.83301 88.167 -8.5 118.5
s-15.667 53.666 -30 69.999s-33.666 27.333 -57.999 33s-55.5 8.5 -93.5 8.5c-4 0 -12.667 -0.333008 -26 -1s-25.666 -1 -36.999 -1v143h65c65.333 0 120.166 -5.5 164.499 -16.5s80 -30.833 107 -59.5s46.167 -67.5 57.5 -116.5s17 -111.833 17 -188.5v-235z" />
    <glyph glyph-name="asciitilde" unicode="~" horiz-adv-x="1706" 
d="M1531 629c-70.667 -50 -138.669 -87.166 -204.002 -111.499s-129.333 -36.5 -192 -36.5c-34 0 -72.333 4.5 -115 13.5s-91 23.167 -145 42.5c-8 4.66699 -16.333 8 -25 10l1 -1l-19 7c-54 19.333 -103.167 34.333 -147.5 45s-81.5 16 -111.5 16
c-26 0 -53.167 -3.33301 -81.5 -10s-58.5 -17.167 -90.5 -31.5s-66.5 -32.333 -103.5 -54s-77.167 -47.5 -120.5 -77.5v156c74.667 52 144.167 90.167 208.5 114.5s126.833 36.5 187.5 36.5c36 0 76 -4.83301 120 -14.5s94.333 -24.834 151 -45.501
c4.66699 -2.66699 9.33398 -4.66699 14.001 -6l6 -2c62.667 -20.667 115.5 -37 158.5 -49s80.5 -18 112.5 -18c26 0 53.333 3.33301 82 10s59.167 17 91.5 31s66.833 32 103.5 54s76.334 48.333 119.001 79v-158z" />
    <glyph glyph-name="Euro" horiz-adv-x="1384" 
d="M1254 497c0 -94 -9.16699 -173.83 -27.5 -239.497s-46.166 -118.834 -83.499 -159.501s-84.333 -70.167 -141 -88.5s-123.334 -27.5 -200.001 -27.5h-87c-93.333 0 -171.833 9 -235.5 27s-115.334 47.167 -155.001 87.5s-68.167 93.333 -85.5 159s-26 146.5 -26 242.5v22
h-184l53 158h131v137h-184l52 159h132v15c0 96 8.66699 176.833 26 242.5s45.833 118.667 85.5 159s91.334 69.5 155.001 87.5s142.167 27 235.5 27h87c301.333 0 452 -155 452 -465h-204c0 53.333 -4.33301 97.833 -13 133.5s-23.5 64.167 -44.5 85.5
s-49.167 36.333 -84.5 45s-79.333 13 -132 13h-101c-50 0 -91.5 -4.33301 -124.5 -13s-59.5 -24.334 -79.5 -47.001s-34 -53.834 -42 -93.501s-12 -90.167 -12 -151.5v-38h659l-52 -159h-607v-137h564l-53 -158h-511v-54c0 -58 4 -106 12 -144s22 -68.333 42 -91
s46.5 -38.5 79.5 -47.5s74.5 -13.5 124.5 -13.5h101c102 0 173 19 213 57c40.667 38.667 61 128.667 61 270h204z" />
    <glyph glyph-name="Euro" unicode="&#x20ac;" horiz-adv-x="1384" 
d="M1254 497c0 -94 -9.16699 -173.83 -27.5 -239.497s-46.166 -118.834 -83.499 -159.501s-84.333 -70.167 -141 -88.5s-123.334 -27.5 -200.001 -27.5h-87c-93.333 0 -171.833 9 -235.5 27s-115.334 47.167 -155.001 87.5s-68.167 93.333 -85.5 159s-26 146.5 -26 242.5v22
h-184l53 158h131v137h-184l52 159h132v15c0 96 8.66699 176.833 26 242.5s45.833 118.667 85.5 159s91.334 69.5 155.001 87.5s142.167 27 235.5 27h87c301.333 0 452 -155 452 -465h-204c0 53.333 -4.33301 97.833 -13 133.5s-23.5 64.167 -44.5 85.5
s-49.167 36.333 -84.5 45s-79.333 13 -132 13h-101c-50 0 -91.5 -4.33301 -124.5 -13s-59.5 -24.334 -79.5 -47.001s-34 -53.834 -42 -93.501s-12 -90.167 -12 -151.5v-38h659l-52 -159h-607v-137h564l-53 -158h-511v-54c0 -58 4 -106 12 -144s22 -68.333 42 -91
s46.5 -38.5 79.5 -47.5s74.5 -13.5 124.5 -13.5h101c102 0 173 19 213 57c40.667 38.667 61 128.667 61 270h204z" />
    <glyph glyph-name="nonbreakingspace" unicode="&#xa0;" horiz-adv-x="1384" 
 />
    <glyph glyph-name="currency" unicode="&#xa4;" horiz-adv-x="1384" 
d="M1254 497c0 -94 -9.16699 -173.83 -27.5 -239.497s-46.166 -118.834 -83.499 -159.501s-84.333 -70.167 -141 -88.5s-123.334 -27.5 -200.001 -27.5h-87c-93.333 0 -171.833 9 -235.5 27s-115.334 47.167 -155.001 87.5s-68.167 93.333 -85.5 159s-26 146.5 -26 242.5v22
h-184l53 158h131v137h-184l52 159h132v15c0 96 8.66699 176.833 26 242.5s45.833 118.667 85.5 159s91.334 69.5 155.001 87.5s142.167 27 235.5 27h87c301.333 0 452 -155 452 -465h-204c0 53.333 -4.33301 97.833 -13 133.5s-23.5 64.167 -44.5 85.5
s-49.167 36.333 -84.5 45s-79.333 13 -132 13h-101c-50 0 -91.5 -4.33301 -124.5 -13s-59.5 -24.334 -79.5 -47.001s-34 -53.834 -42 -93.501s-12 -90.167 -12 -151.5v-38h659l-52 -159h-607v-137h564l-53 -158h-511v-54c0 -58 4 -106 12 -144s22 -68.333 42 -91
s46.5 -38.5 79.5 -47.5s74.5 -13.5 124.5 -13.5h101c102 0 173 19 213 57c40.667 38.667 61 128.667 61 270h204z" />
    <glyph glyph-name="brokenbar" unicode="&#xa6;" 
d="M585 436v-776h-144v776h144zM585 1432v-776h-144v776h144z" />
    <glyph glyph-name="section" unicode="&#xa7;" horiz-adv-x="1118" 
d="M441 931c-62.667 -11.333 -109.834 -28.333 -141.501 -51s-47.5 -49 -47.5 -79c0 -28 11.5 -52.5 34.5 -73.5s58.833 -39.167 107.5 -54.5l283 -91c62.667 12 109.834 29.333 141.501 52s47.5 49 47.5 79c0 28 -11.167 51.833 -33.5 71.5s-58.5 37.5 -108.5 53.5z
M331 318l-0.00585938 -67.0039c0 -20 3.33301 -36 10 -48s18.334 -21.333 35.001 -28s39.334 -11 68.001 -13s65 -3 109 -3c47.333 0 85.5 1.33301 114.5 4s51.5 8 67.5 16s26.667 19.167 32 33.5s8 33.5 8 57.5c0 32 -5.66699 56.167 -17 72.5s-31 28.5 -59 36.5l-363 118
c-51.333 16.667 -94.666 34 -129.999 52s-64 37.833 -86 59.5s-38 45.5 -48 71.5s-15 55.667 -15 89c0 56.667 15.333 105.167 46 145.5s75.334 70.166 134.001 89.499c-36.667 21.333 -62.834 49.333 -78.501 84s-23.5 81 -23.5 139c0 104.667 29.333 177.334 88 218.001
h-1c28.667 20.667 69.334 35.834 122.001 45.501s118.334 14.5 197.001 14.5c68.667 0 127.167 -4.66699 175.5 -14s87.666 -24 117.999 -44s52.333 -45.5 66 -76.5s20.5 -68.167 20.5 -111.5v-65h-192v42c0 18.667 -2.66699 34 -8 46s-15.333 21.5 -30 28.5
s-35 11.833 -61 14.5s-59.667 4 -101 4c-44.667 0 -80 -1.16699 -106 -3.5s-45.833 -6.66602 -59.5 -12.999s-22.5 -15.5 -26.5 -27.5s-6 -27.667 -6 -47c0 -28 6.33301 -49.667 19 -65s33 -28 61 -38l217.5 -70l217.5 -71c143.333 -47.333 215 -132.666 215 -255.999
c0 -26.667 -4 -52.167 -12 -76.5s-19.833 -46.666 -35.5 -66.999s-34.5 -38 -56.5 -53s-47 -26.5 -75 -34.5c15.333 -11.333 28.5 -23.833 39.5 -37.5s20.167 -29.834 27.5 -48.501s12.833 -40.167 16.5 -64.5s5.5 -52.5 5.5 -84.5c0 -53.333 -6.33301 -98.333 -19 -135
s-34.5 -66.5 -65.5 -89.5s-72.833 -39.667 -125.5 -50s-119.334 -15.5 -200.001 -15.5c-81.333 0 -149.166 4.5 -203.499 13.5s-97.666 23.333 -129.999 43s-55.166 45.334 -68.499 77.001s-20 70.167 -20 115.5v87h192z" />
    <glyph glyph-name="copyright" unicode="&#xa9;" horiz-adv-x="1706" 
d="M1051 890c-11.333 52 -34.167 92.333 -68.5 121s-76.5 43 -126.5 43c-74.667 0 -132 -28.833 -172 -86.5s-60 -139.834 -60 -246.501c0 -48.667 5 -93 15 -133s24.833 -74.167 44.5 -102.5s43.834 -50.333 72.501 -66s62 -23.5 100 -23.5c54 0 99.333 16.333 136 49
s60 77.334 70 134.001h150c-4.66699 -50 -16.834 -94.667 -36.501 -134s-45.334 -72.5 -77.001 -99.5s-68.667 -47.5 -111 -61.5s-88.166 -21 -137.499 -21c-60 0 -114 10.667 -162 32s-88.833 52 -122.5 92s-59.667 88.667 -78 146s-27.5 122 -27.5 194
c0 68 9.5 130 28.5 186s46 104 81 144s77.167 71 126.5 93s104 33 164 33c46 0 88.833 -6.5 128.5 -19.5s74.5 -32 104.5 -57s54.5 -55.667 73.5 -92s30.833 -77.833 35.5 -124.5h-151zM1468 723c0 57.333 -7.49902 112.499 -22.499 165.499s-36 102.167 -63 147.5
s-59.333 86.666 -97 123.999s-79.334 69.333 -125.001 96s-94.5 47.167 -146.5 61.5s-106 21.5 -162 21.5c-58 0 -113.5 -7.66699 -166.5 -23s-102.167 -36.833 -147.5 -64.5s-86.5 -60.667 -123.5 -99s-68.5 -80.333 -94.5 -126s-46.167 -94.167 -60.5 -145.5
s-21.5 -104 -21.5 -158c0 -55.333 7.5 -109 22.5 -161s36 -100.667 63 -146s59.333 -86.833 97 -124.5s79.167 -70 124.5 -97s94 -48 146 -63s105.667 -22.5 161 -22.5c53.333 0 105.666 6.83301 156.999 20.5s99.833 33.334 145.5 59.001s87.667 56.667 126 93
s71.333 77.333 99 123s49.334 95.334 65.001 149.001s23.5 110.167 23.5 169.5zM852 1455c66 0 130 -8.66992 192 -26.0029s120.167 -41.666 174.5 -72.999s104 -69.166 149 -113.499s83.667 -93.666 116 -147.999s57.333 -112.833 75 -175.5s26.5 -128 26.5 -196
c0 -102 -17.667 -196 -53 -282s-88.333 -163.333 -159 -232c-72.667 -70.667 -153 -124.834 -241 -162.501s-181.333 -56.5 -280 -56.5s-191.667 18.5 -279 55.5s-166.333 90.833 -237 161.5s-124.167 149.5 -160.5 236.5s-54.5 180.167 -54.5 279.5
c0 97.333 18.5 190.333 55.5 279s91.5 169.334 163.5 242.001c68.667 70 146.167 122.5 232.5 157.5s179.5 52.833 279.5 53.5z" />
    <glyph glyph-name="guillemotleft" unicode="&#xab;" horiz-adv-x="981" 
d="M896 207h-217l-253 324l253 325h217l-257 -325zM555 207h-217l-254 324l254 325h217l-257 -325z" />
    <glyph glyph-name="logicalnot" unicode="&#xac;" horiz-adv-x="1706" 
d="M1455 874v-528h-132v391h-1072v137h1204z" />
    <glyph glyph-name="sfthyphen" unicode="&#xad;" horiz-adv-x="825" 
d="M121 472v175h583v-175h-583z" />
    <glyph glyph-name="registered" unicode="&#xae;" horiz-adv-x="1706" 
d="M716 1042l0.000976562 -255.999h134c82 0 139.667 9.66699 173 29h-1c29.333 19.333 44 51 44 95c0 47.333 -16.833 81.166 -50.5 101.499s-88.834 30.5 -165.501 30.5h-134zM873.001 1164c122.667 0 213.167 -19.8311 271.5 -59.498s87.5 -101.834 87.5 -186.501
c0 -28 -4.33301 -54.5 -13 -79.5s-21 -47.5 -37 -67.5s-35.333 -37.333 -58 -52s-48 -25.334 -76 -32.001l46 -94l48 -98.5l47 -98l44 -91.5h-184l-174 360h-159v-360h-163v859h320zM1468 721.003c0 88 -16.333 169.671 -49 245.004s-77 140.666 -133 195.999
s-121.333 98.666 -196 129.999s-154 47 -238 47c-82.667 0 -160.167 -14.833 -232.5 -44.5s-137.833 -73.834 -196.5 -132.501c-62 -62 -108.333 -130.167 -139 -204.5s-46 -152.5 -46 -234.5c0 -55.333 7.5 -109 22.5 -161s36 -100.667 63 -146s59.333 -86.833 97 -124.5
s79.167 -70 124.5 -97s94 -48 146 -63s105.667 -22.5 161 -22.5c80 0 157 15.167 231 45.5s139.5 72.666 196.5 126.999s102.667 118.833 137 193.5s51.5 156.667 51.5 246zM852.001 1455.01c67.333 0 132.333 -8.66699 195 -26s121.167 -41.833 175.5 -73.5
s103.833 -69.834 148.5 -114.501s82.834 -94.167 114.501 -148.5s56.167 -112.666 73.5 -174.999s26 -127.166 26 -194.499c0 -102 -17.667 -196 -53 -282s-88.333 -163.333 -159 -232c-72.667 -70.667 -153 -124.834 -241 -162.501s-181.333 -56.5 -280 -56.5
c-100 0 -193.333 18.5 -280 55.5s-165.334 90.833 -236.001 161.5s-124.167 149.5 -160.5 236.5s-54.5 180.167 -54.5 279.5c0 96.667 18.5 189.5 55.5 278.5s91.5 169.833 163.5 242.5c68.667 70 146 122.5 232 157.5s179.333 52.833 280 53.5z" />
    <glyph glyph-name="macron" unicode="&#xaf;" 
d="M243 1243v153h538v-153h-538z" />
    <glyph glyph-name="degree" unicode="&#xb0;" horiz-adv-x="674" 
d="M520 1162c0 24 -4.66699 47.0029 -14 69.0029s-22.166 41.333 -38.499 58s-35.666 30 -57.999 40s-46.166 15 -71.499 15c-26 0 -50.167 -4.83301 -72.5 -14.5s-41.833 -22.834 -58.5 -39.501s-29.667 -36 -39 -58s-14 -45.333 -14 -70c0 -26 4.83301 -50 14.5 -72
s22.834 -41.167 39.501 -57.5s36.167 -29.166 58.5 -38.499s46.166 -14 71.499 -14s49.166 4.66699 71.499 14s41.666 22.166 57.999 38.499s29.166 35.666 38.499 57.999s14 46.166 14 71.499zM338 1451c40 0 77.5 -7.8291 112.5 -23.4961s65.5 -36.834 91.5 -63.501
s46.5 -57.334 61.5 -92.001s22.5 -71.334 22.5 -110.001c0 -39.333 -7.66699 -76.666 -23 -111.999s-36.166 -66.333 -62.499 -93s-57 -47.667 -92 -63s-72.5 -23 -112.5 -23c-42 0 -80.667 7.83301 -116 23.5s-65.833 36.667 -91.5 63s-45.667 57.166 -60 92.499
s-21.5 72.666 -21.5 111.999c0 40 7.66699 77.5 23 112.5s36.333 65.667 63 92s57.667 47 93 62s72.666 22.5 111.999 22.5z" />
    <glyph glyph-name="plusminus" unicode="&#xb1;" horiz-adv-x="1706" 
d="M1455 185v-135h-1204v135h1204zM921 1176v-338h534v-135h-534v-338h-134v338h-536v135h536v338h134z" />
    <glyph glyph-name="acute" unicode="&#xb4;" 
d="M491 1146h-133l227 377h198z" />
    <glyph glyph-name="paragraph" unicode="&#xb6;" 
d="M948 1371h-123.998v-1371h-118v1371h-142v-1371h-121v762c-57.333 4 -108.666 15.5 -153.999 34.5s-83.833 44 -115.5 75s-55.834 67.5 -72.501 109.5s-25 88 -25 138c0 53.333 9.66699 102 29 146s46.666 81.833 81.999 113.5s77.666 56.167 126.999 73.5s104 26 164 26
h470v-107z" />
    <glyph glyph-name="periodcentered" unicode="&#xb7;" horiz-adv-x="692" 
d="M211 793c0 18 3.6709 35.167 11.0039 51.5s17.166 30.666 29.499 42.999s26.666 22 42.999 29s33.5 10.5 51.5 10.5s35.167 -3.5 51.5 -10.5s30.666 -16.667 42.999 -29s22.166 -26.666 29.499 -42.999s11 -33.5 11 -51.5s-3.5 -35 -10.5 -51s-16.5 -30 -28.5 -42
s-26.333 -21.667 -43 -29s-34.334 -11 -53.001 -11c-19.333 0 -37.166 3.66699 -53.499 11s-30.5 17 -42.5 29s-21.5 26 -28.5 42s-10.5 33 -10.5 51z" />
    <glyph glyph-name="guillemotright" unicode="&#xbb;" horiz-adv-x="981" 
d="M428 207l254 324l-62 79l-66 84.5l-65.5 84l-60.5 77.5h215l254 -325l-254 -324h-215zM85 207l256 324l-63 78.5l-66 84l-65.5 84l-61.5 78.5h217l253 -325l-253 -324h-217z" />
    <glyph glyph-name="divide" unicode="&#xf7;" horiz-adv-x="1706" 
d="M854 394c17.333 0 33.501 -3.16699 48.501 -9.5s28.167 -15 39.5 -26s20.166 -24.167 26.499 -39.5s9.5 -31.666 9.5 -48.999s-3.16699 -33.333 -9.5 -48s-15.166 -27.5 -26.499 -38.5s-24.5 -19.667 -39.5 -26s-31.167 -9.5 -48.5 -9.5s-33.5 3.16699 -48.5 9.5
s-28 15 -39 26s-19.667 23.833 -26 38.5s-9.5 30.667 -9.5 48s3.16699 33.5 9.5 48.5s15.166 28.167 26.499 39.5s24.333 20.166 39 26.499s30.667 9.5 48 9.5zM854.001 1081c16 0 31.3301 -3.33398 45.9971 -10.001s27.834 -15.667 39.501 -27s21 -24.666 28 -39.999
s10.5 -31.333 10.5 -48c0 -17.333 -3.16699 -33.5 -9.5 -48.5s-15.166 -28 -26.499 -39s-24.5 -19.667 -39.5 -26s-31.167 -9.5 -48.5 -9.5s-33.5 3.16699 -48.5 9.5s-28 15 -39 26s-19.667 24 -26 39s-9.5 31.167 -9.5 48.5c0 18 3.5 34.667 10.5 50s16.333 28.5 28 39.5
s24.834 19.667 39.501 26s29.667 9.5 45 9.5zM1455 679.999v-134h-1204v134h1204z" />
    <glyph glyph-name="circumflex" unicode="&#x2c6;" 
d="M210 1146l217 377h170l217 -377h-133l-169 241l-85 -120.5l-84 -120.5h-133z" />
    <glyph glyph-name="caron" unicode="&#x2c7;" 
d="M210 1523h133l169 -241l85 122l84 119h133l-217 -377h-170z" />
    <glyph glyph-name="breve" unicode="&#x2d8;" 
d="M341 1482c4 -50 19.333 -86.167 46 -108.5s68.334 -33.5 125.001 -33.5c56 0 97.167 11.167 123.5 33.5s41.833 58.5 46.5 108.5h117c-3.33301 -51.333 -11.333 -95.5 -24 -132.5s-30.834 -67.5 -54.501 -91.5s-52.667 -41.667 -87 -53s-74.833 -17 -121.5 -17
c-92 0 -161.167 23.5 -207.5 70.5s-72.833 121.5 -79.5 223.5h116z" />
    <glyph glyph-name="dotaccent" unicode="&#x2d9;" 
d="M419 1215v208h186v-208h-186z" />
    <glyph glyph-name="ring" unicode="&#x2da;" 
d="M386 1346c0 -18.667 3.33105 -35.667 9.99805 -51s15.667 -28.5 27 -39.5s24.666 -19.667 39.999 -26s31.666 -9.5 48.999 -9.5c16.667 0 32.5 3.16699 47.5 9.5s28.333 15 40 26s21 24.333 28 40s10.5 32.5 10.5 50.5s-3.33301 34.833 -10 50.5s-15.667 29 -27 40
s-24.666 19.667 -39.999 26s-31.666 9.5 -48.999 9.5s-33.666 -3.16699 -48.999 -9.5s-28.666 -15 -39.999 -26s-20.333 -24.167 -27 -39.5s-10 -32.333 -10 -51zM258.998 1346c0 35.333 6.50098 68.499 19.501 99.499s30.833 58 53.5 81s49.5 41.167 80.5 54.5
s64.167 20 99.5 20c34 0 66.5 -6.66699 97.5 -20s58.167 -31.5 81.5 -54.5s41.833 -50 55.5 -81s20.5 -64.167 20.5 -99.5c0 -36 -6.83301 -69.5 -20.5 -100.5s-32.167 -57.667 -55.5 -80s-50.333 -40 -81 -53s-63.334 -19.5 -98.001 -19.5
c-35.333 0 -68.5 6.66699 -99.5 20s-57.833 31.5 -80.5 54.5s-40.5 49.833 -53.5 80.5s-19.5 63.334 -19.5 98.001z" />
    <glyph glyph-name="ogonek" unicode="&#x2db;" 
d="M618 39l-121 -203.998l1 1c-9.33301 -17.333 -15.833 -30.833 -19.5 -40.5s-5.5 -18.167 -5.5 -25.5c0 -12 6 -18 18 -18h121v-144h-175c-24 0 -44.167 1.66699 -60.5 5s-29.5 9.16602 -39.5 17.499s-17 19.166 -21 32.499s-6 30 -6 50c0 40 16 81 48 123l75.5 101.5
l75.5 101.5h109z" />
    <glyph glyph-name="tilde" unicode="&#x2dc;" 
d="M819 1440c-40.667 -142.667 -111.336 -213.999 -212.003 -213.999c-10.667 0.666992 -21.667 1.5 -33 2.5s-23.666 3.5 -36.999 7.5l-92 28c-11.333 3.33301 -20.166 5.66602 -26.499 6.99902s-13.166 2 -20.499 2c-14 0 -27.833 -6.16699 -41.5 -18.5
s-25.834 -29.5 -36.501 -51.5h-113c17.333 70.667 44.166 124 80.499 160s80.833 54 133.5 54c18.667 0 36.5 -2.5 53.5 -7.5s33.5 -10.333 49.5 -16s31.833 -11 47.5 -16s31.834 -7.5 48.501 -7.5c34.667 0 61.334 23.333 80.001 70h119z" />
    <glyph glyph-name="hungarumlaut" unicode="&#x2dd;" 
d="M314 1146l162 377h176l-226 -377h-112zM541 1146l182 377h178l-246 -377h-114z" />
    <glyph glyph-name="Omega" unicode="&#x3a9;" horiz-adv-x="1579" 
d="M1463 174v-173.999h-604v154c136.667 80.667 238.834 174.5 306.501 281.5s101.5 226.167 101.5 357.5c0 82 -11.833 156.5 -35.5 223.5s-56.5 124.333 -98.5 172s-92.167 84.667 -150.5 111s-122.166 39.5 -191.499 39.5c-70.667 0 -135.334 -13.167 -194.001 -39.5
s-109.167 -63.333 -151.5 -111s-75.166 -105 -98.499 -172s-35 -140.833 -35 -221.5c0 -266.667 136 -480.334 408 -641.001v-154h-604v174h298c-100 84 -174 176 -222 276s-72 210.667 -72 332c0 106 16.667 203.667 50 293s79.666 166.333 138.999 231
s130.166 115 212.499 151s172.166 54 269.499 54c96 0 185 -17.833 267 -53.5s152.833 -85.5 212.5 -149.5s106.334 -140.667 140.001 -230s50.5 -187.333 50.5 -294c0 -122.667 -24 -233.5 -72 -332.5s-122.667 -191.5 -224 -277.5h298z" />
    <glyph glyph-name="pi" unicode="&#x3c0;" horiz-adv-x="1171" 
d="M1121 918h-175.997l-27 -124l-30.5 -136l-30 -136.5l-26 -125c-7.66699 -38.333 -13.834 -72.166 -18.501 -101.499s-7 -51.333 -7 -66c0 -30.667 6.66699 -52.334 20 -65.001s36 -19 68 -19c17.333 0 35.666 1.5 54.999 4.5s39.333 6.5 60 10.5l-33 -156
c-22.667 -7.33301 -43.834 -12.5 -63.501 -15.5s-37.167 -4.5 -52.5 -4.5c-72.667 0 -128.667 18.833 -168 56.5s-59 90.834 -59 159.501c0 18 0.666992 36.167 2 54.5s4 40.166 8 65.499s9.66699 56 17 92l28 134l39.5 184.5l39.5 187.5h-315l-96.5 -458.5l-96.5 -459.5
h-176l193 918h-13c-30 0 -53.5 -10.167 -70.5 -30.5s-29.167 -52.5 -36.5 -96.5h-168c10 57.333 22.5 104.333 37.5 141s34.667 65.667 59 87s54.333 36 90 44s79.5 12 131.5 12h850z" />
    <glyph glyph-name="uni10A0" unicode="&#x10a0;" horiz-adv-x="1150" 
d="M320 620l-20 -300c0 -113.333 48.333 -170 145 -170h260c96.667 0 145 56.667 145 170v350c0 93.333 -48.333 140 -145 140h-90c-180 0 -270 108.333 -270 325h200c0 -100 22.667 -150 68 -150h92c230 0 345 -105 345 -315v-350c0 -230 -115 -345 -345 -345h-260
c-230 0 -345 115 -345 345l20 300h200z" />
    <glyph glyph-name="uni10A1" unicode="&#x10a1;" horiz-adv-x="1150" 
d="M100 680c0 230 114.334 345 343.001 345h45l20 123c0.666992 2 1 5.33301 1 10v11c0 66.667 -32 105 -96 115c-70 10.667 -105 82.667 -105 216h231c0.666992 -78 30.667 -128.667 90 -152c25.333 -10 43.666 -27.667 54.999 -53s17 -58.333 17 -99
c0 -7.33301 -0.333008 -15 -1 -23l-2 -25l-10 -123h25c224.667 0 337 -115 337 -345v-360c0 -230 -115 -345 -345 -345h-260c-230 0 -345 115 -345 345v360zM705.001 151c96.667 0 145 56.333 145 169v360c0 113.333 -58.333 170 -175 170h-230
c-96.667 0 -145 -56.667 -145 -170v-360c0 -112.667 48.333 -169 145 -169h260z" />
    <glyph glyph-name="uni10A2" unicode="&#x10a2;" horiz-adv-x="1230" 
d="M100 190c0 230 114.333 345 343 345h297v226c0 60 -38.333 90 -115 90h-100c-83.333 0 -125 -29 -125 -87v-63h-200v84c0 160 83.333 240 250 240h256c156 0 234 -81.333 234 -244v-267c126.667 -18 190 -126 190 -324v-278c0 -230 -115 -345 -345 -345h-340
c-230 0 -345 115 -345 345v278zM785 -257c96.667 0 145 56.333 145 169v278c0 113.333 -48.333 170 -145 170h-340c-96.667 0 -145 -56.667 -145 -170v-278c0 -112.667 48.333 -169 145 -169h340z" />
    <glyph glyph-name="uni10A3" unicode="&#x10a3;" horiz-adv-x="1790" 
d="M1200 -493c0 59.333 -75.001 89.667 -225.001 91h-747v175h195c-215.333 247.333 -323 440.333 -323 579v328c0 230 115 345 345 345h155c100 0 180 -41 240 -123c62.667 82 144.334 123 245.001 123h262c228.667 0 343 -115 343 -345v-300c0 -230 -115 -345 -345 -345
h-260c-230 0 -345 115 -345 345v300c0 113.333 -55 170 -165 170h-130c-96.667 0 -145 -56.667 -145 -170v-328c0 -134 120.667 -327.667 362 -581l313 2c283.333 -1.33301 425 -90 425 -266h-200zM1345 211.001c96.667 0 145 56.333 145 169v300
c0 113.333 -48.333 170 -145 170h-260c-96.667 0 -145 -56.667 -145 -170v-300c0 -112.667 48.333 -169 145 -169h260z" />
    <glyph glyph-name="uni10A4" unicode="&#x10a4;" horiz-adv-x="1160" 
d="M170 680c-0.666992 5.33301 -1 10.333 -1 15v14c0 105.333 28.167 184.333 84.5 237s139.5 79 249.5 79h202c230 0 345 -115 345 -345v-768c0 -230 -115 -345 -345 -345h-260c-230 0 -345 115 -345 345l30 277h200l-30 -277c0 -112.667 48.333 -169 145 -169h260
c96.667 0 145 56.333 145 169v768c0 113.333 -48.333 170 -145 170h-200c-96.667 0 -145 -56.667 -145 -170l10 -191h-200v191z" />
    <glyph glyph-name="uni10A5" unicode="&#x10a5;" horiz-adv-x="1160" 
d="M475 425h240c76.667 0 115 66.667 115 200v56c0 113.333 -48.333 170 -145 170h-200c-96.667 0 -145 -66.667 -145 -200l10 -72h-200l-10 72c0 250 114.333 375 343 375h202c230 0 345 -115 345 -345v-116c-20 -83.333 -63.667 -156 -131 -218
c80.667 -62 131 -134.333 151 -217v-218c0 -230 -115 -345 -345 -345h-260c-230 0 -345 115 -345 345l20 239h200l-20 -239c0 -112.667 48.333 -169 145 -169h260c96.667 0 145 56.333 145 169v138c0 133.333 -45 200 -135 200h-240v175z" />
    <glyph glyph-name="uni10A6" unicode="&#x10a6;" horiz-adv-x="1240" 
d="M30 1154c0 230 114.332 345.001 342.999 345.001h142c216.667 -6.66699 328.334 -118.334 335.001 -335.001v-110c-0.666992 -3.33301 -1 -6.5 -1 -9.5s-0.333008 -6.16699 -1 -9.5l-2 -18c196 -31.333 294 -140.333 294 -327v-370c0 -230 -115 -345 -345 -345h-260
c-230 0 -345 115 -345 345v301c0 20 2.66699 43.333 8 70c-112 54.667 -168 136 -168 244v219zM794.999 151.001c96.667 0 145 56.334 145 169.001v370c0 84 -40 145.667 -120 185c-9.33301 -76.667 -42.5 -133.334 -99.5 -170.001s-138.833 -55 -245.5 -55h-85v-330
c0 -112.667 48.333 -169 145 -169h260zM534.999 811.002c76.667 0 115 64.333 115 193v160c0 106.667 -45 160 -135 160h-140c-96.667 0 -145 -56.667 -145 -170v-219c0 -82.667 45 -124 135 -124h170z" />
    <glyph glyph-name="uni10A7" unicode="&#x10a7;" horiz-adv-x="1820" 
d="M1325 151c130 20 195 76.333 195 169v360c0 113.333 -48.333 170 -145 170h-180c-88 0 -139 -36 -153 -108l4 -30.5l4 -31.5v-360c0 -230 -115 -345 -345 -345h-260c-230 0 -345 115 -345 345v360c0 230 114.333 345 343 345h282c100 0 178 -41 234 -123
c76 82 154 123 234 123h182c230 0 345 -115 345 -345v-360c0 -210 -131.333 -325 -394 -345zM705 151c96.667 0 145 56.333 145 169v360c0 113.333 -48.333 170 -145 170h-260c-96.667 0 -145 -56.667 -145 -170v-360c0 -112.667 48.333 -169 145 -169h260z" />
    <glyph glyph-name="uni10A8" unicode="&#x10a8;" horiz-adv-x="1150" 
d="M455 -25c-236.667 32.667 -355 147.667 -355 345v360c0 230 114.333 345 343 345h262c230 0 345 -115 345 -345v-360c0 -197.333 -118.333 -312.333 -355 -345v186c103.333 16 155 69 155 159v360c0 113.333 -48.333 170 -145 170h-260c-96.667 0 -145 -56.667 -145 -170
v-360c0 -90 51.667 -143 155 -159v-186z" />
    <glyph glyph-name="uni10A9" unicode="&#x10a9;" horiz-adv-x="1160" 
d="M485 425h230.001c76.667 0 115 56.667 115 170v126c-3.33301 63.333 -60 106.333 -170 129l75 175c177.333 -66.667 275.666 -161.334 294.999 -284.001v-226c-20 -67.333 -66.667 -123.666 -140 -168.999c86.667 -62.667 140 -134.667 160 -216v-218
c0 -230 -115 -345 -345 -345h-260c-230 0 -345 115 -345 345l30 258h200l-30 -258c0 -112.667 48.333 -169 145 -169h260c96.667 0 145 56.333 145 169v168c0 113.333 -46.667 170 -140 170h-225v175z" />
    <glyph glyph-name="uni10AA" unicode="&#x10aa;" horiz-adv-x="2300" 
d="M1350 340l-0.000976562 349.998c0 106.667 -48.333 160 -145 160h-110c-96.667 0 -145 -53.333 -145 -160v-350h-200v350c0 106.667 -48.333 160 -145 160h-160c-96.667 0 -145 -56.667 -145 -170v-330c0 -127.333 152.333 -320.333 457 -579l548 2
c290 0.666992 435 -87.666 435 -264.999h-200c0 60 -78.333 90 -235 90l-1037 -2v175l207 1c-250 224.667 -375 417.334 -375 578.001v330c0 230 114.333 345 343 345h162c100 0 181.667 -51 245 -153c62.667 102 143.667 153 243 153h112c98 0 178.667 -50 242 -150
c62.667 100 145.334 150 248.001 150h162c228.667 0 343 -115 343 -345v-288c0 -206 -118.333 -328.333 -355 -367v186c103.333 31.333 155 92 155 182v287c0 113.333 -48.333 170 -145 170h-160c-96.667 0 -145 -53.333 -145 -160v-350h-200z" />
    <glyph glyph-name="uni10AB" unicode="&#x10ab;" horiz-adv-x="1160" 
d="M100 680c0 230 114.334 345 343.001 345h262c47.333 0 95.666 -22.667 144.999 -68v227c0 93.333 -45 140 -135 140h-286c-70 0 -105 -50 -105 -150h-200c0 216.667 101 325 303 325h288c223.333 0 335 -105 335 -315v-864c0 -230 -115 -345 -345 -345h-260
c-230 0 -345 115 -345 345v360zM705.001 151c96.667 0 145 56.333 145 169v340c0 114 -48.333 177.333 -145 190h-260c-96.667 0 -145 -56.667 -145 -170v-360c0 -112.667 48.333 -169 145 -169h260z" />
    <glyph glyph-name="uni10AC" unicode="&#x10ac;" horiz-adv-x="1160" 
d="M110 1206c0 190 108.332 285 324.999 285l525 -1v-175l-525 1c-83.333 0 -125 -36.667 -125 -110v-248c48.667 44.667 96.334 67 143.001 67h262c230 0 345 -115 345 -345v-360c0 -230 -115 -345 -345 -345h-260c-230 0 -345 115 -345 345v886zM714.999 151
c96.667 0 145 56.333 145 169v360c0 113.333 -48.333 170 -145 170h-260c-96.667 -12.667 -145 -76 -145 -190v-340c0 -112.667 48.333 -169 145 -169h260z" />
    <glyph glyph-name="uni10AD" unicode="&#x10ad;" horiz-adv-x="1720" 
d="M760 400v300c0 100 -48.333 150 -145 150h-170c-96.667 0 -145 -56.667 -145 -170v-360c0 -92.667 71.667 -149 215 -169v-176c-276.667 20 -415 135 -415 345v360c0 230 114.333 345 343 345h172c100 0 181.667 -47.667 245 -143c63.333 95.333 145 143 245 143h162
c228.667 0 343 -115 343 -345v-360c0 -210 -138.333 -325 -415 -345v176c143.333 20 215 76.333 215 169v360c0 113.333 -48.333 170 -145 170h-160c-96.667 0 -145 -50 -145 -150v-300h-200z" />
    <glyph glyph-name="uni10AE" unicode="&#x10ae;" horiz-adv-x="1160" 
d="M575 1501c0 -53.333 32.667 -79.998 98 -79.998c252 0 378 -76.333 378 -229v-100c0 -114.667 -58.333 -195 -175 -241c60 -28.667 104 -63.834 132 -105.501s42 -89.834 42 -144.501v-281c0 -230 -115 -345 -345 -345h-260c-230 0 -345 115 -345 345l30 300h200
l-30 -300c0 -112.667 48.333 -169 145 -169h260c96.667 0 145 56.333 145 169v281c0 114.667 -45 172 -135 172h-240v175h240c90 0 135 48.667 135 146v81c0 47.333 -58.333 71 -175 71c-200 0 -300 85 -300 255h200z" />
    <glyph glyph-name="uni10AF" unicode="&#x10af;" horiz-adv-x="1160" 
d="M220 985h830v-1073c0 -230 -115 -345 -345 -345h-260c-230 0 -345 115 -345 345l20 227h200l-20 -227c0 -112.667 48.333 -169 145 -169h260c96.667 0 145 56.333 145 169v938l-175 -11v-199c0 -210 -108.333 -315 -325 -315h-230v176h230c83.333 0 125 46.333 125 139
v186l-255 -16v175z" />
    <glyph glyph-name="uni10B0" unicode="&#x10b0;" horiz-adv-x="1710" 
d="M1205 1315h-630c-116.667 0 -175 -23.333 -175 -70v-121c0 -66 61.667 -99 185 -99c120 0 211.667 -47.667 275 -143c63.333 95.333 145 143 245 143h162c228.667 0 343 -115 343 -345v-360c0 -210 -125 -325 -375 -345v176c116.667 20 175 76.333 175 169v360
c0 113.333 -48.333 170 -145 170h-160c-96.667 0 -145 -53.333 -145 -160v-290h-200v290c0 106.667 -48.333 160 -145 160h-170c-96.667 0 -145 -56.667 -145 -170v-360c0 -92.667 58.333 -149 175 -169v-176c-250 20 -375 135 -375 345v360
c0 141.333 51.333 240.333 154 297c-36 50.667 -54 99.667 -54 147v121c0 163.333 124.333 245 373 245h632v-175z" />
    <glyph glyph-name="uni10B1" unicode="&#x10b1;" horiz-adv-x="1160" 
d="M762 1094c0 -145.333 31 -218.332 93 -218.999c136.667 -12.667 205 -121 205 -325v-240c0 -223.333 -125 -335 -375 -335h-200c-250 0 -375 111.667 -375 335v1190h200v-1190c0 -106 58.333 -159 175 -159h200c116.667 0 175 53 175 159v240
c0 109.333 -27.667 165.666 -83 168.999c-143.333 7.33301 -215 132.333 -215 375h200z" />
    <glyph glyph-name="uni10B2" unicode="&#x10b2;" horiz-adv-x="1363" 
d="M110 650c0 230 114.333 345 343 345h133v210h180v-210h142c230 0 345 -115 345 -345v-737c0 -230 -115 -345 -345 -345h-453c-230 0 -345 115 -345 345v737zM586 820h-131c-96.667 0 -145 -56.667 -145 -170v-737c0 -112.667 48.333 -169 145 -169h453
c96.667 0 145 56.333 145 169v737c0 113.333 -48.333 170 -145 170h-142v-635h-180v635z" />
    <glyph glyph-name="uni10B3" unicode="&#x10b3;" horiz-adv-x="1140" 
d="M382 399v311c0 93.333 -45 140 -135 140h-165v175h165c86 0 160.667 -44 224 -132c54 88 115.333 132 184 132h125c166.667 0 250 -91.667 250 -275v-838c0 -230 -115 -345 -345 -345h-260c-230 0 -345 115 -345 345l20 297h200l-20 -297
c0 -112.667 48.333 -169 145 -169h260c96.667 0 145 56.333 145 169v788c0 100 -26.667 150 -80 150h-81c-58 0 -87 -46.667 -87 -140v-311h-200z" />
    <glyph glyph-name="uni10B4" unicode="&#x10b4;" horiz-adv-x="1810" 
d="M1230 337l95.001 1c116.667 0.666992 175 44.667 175 132v240c0 93.333 -48.333 140 -145 140h-160c-88 0 -139 -46 -153 -138l4 -30.5l4 -31.5v-235c0 -230 -115 -345 -345 -345h-260c-230 0 -345 115 -345 345v265c0 230 114.333 345 343 345h262
c99.333 0 180.666 -41 243.999 -123c62.667 82 144 123 244 123h162c230 0 345 -105 345 -315v-210c0 -113.333 -53 -200.333 -159 -261c92.667 -62 139 -144 139 -246v-80c0 -226.667 -125 -342.334 -375 -347.001h-475c-251.333 0 -377 98.333 -377 295h200
c0 -78.667 59 -118 177 -118h475c116.667 0.666992 175 47.334 175 140.001v140c0 48 -12.333 83 -37 105s-62 33.333 -112 34l-101 1v174zM705.001 246c96.667 0 145 56.333 145 169v265c0 113.333 -48.333 170 -145 170h-260c-96.667 0 -145 -56.667 -145 -170v-265
c0 -112.667 48.333 -169 145 -169h260z" />
    <glyph glyph-name="uni10B5" unicode="&#x10b5;" horiz-adv-x="1160" 
d="M160 680c-0.666992 5.33301 -1.00098 10.333 -1.00098 15v16c0 104.667 26.5 183.167 79.5 235.5s131.167 78.5 234.5 78.5h142c84.667 0 163 -26 235 -78v553h200v-1588c0 -230 -115 -345 -345 -345h-260c-230 0 -345 115 -345 345l20 237h200l-20 -237
c0 -112.667 48.333 -169 145 -169h260c96.667 0 145 56.333 145 169v662c-5.33301 184 -83.666 276 -234.999 276h-140c-83.333 0 -125 -56.667 -125 -170l10 -201h-200v201z" />
    <glyph glyph-name="uni10B6" unicode="&#x10b6;" horiz-adv-x="1700" 
d="M1120 -493c0 58.667 -68.335 88.333 -205.002 89l-707 2v175h226c-222.667 232.667 -334 431.667 -334 597v310c0 230 114.333 345 343 345h162c100 0 181.667 -41 245 -123c62.667 82 144.334 123 245.001 123h162c228.667 0 343 -115 343 -345v-260
c0 -216 -121.667 -347.667 -365 -395v176c110 46.667 165 119.667 165 219v260c0 113.333 -48.333 170 -145 170h-160c-96.667 0 -145 -50 -145 -150v-300h-200v300c0 100 -48.333 150 -145 150h-160c-96.667 0 -145 -56.667 -145 -170v-310
c0 -158 132.333 -357.333 397 -598l218 -1c136.667 -0.666992 238.334 -22.167 305.001 -64.5s100 -108.833 100 -199.5h-200z" />
    <glyph glyph-name="uni10B7" unicode="&#x10b7;" horiz-adv-x="1160" 
d="M330 508c0 -99.333 65 -149 195 -149h100c150 0 225 66.333 225 199v446h200v-1092c0 -230 -115 -345 -345 -345h-260c-230 0 -345 115 -345 345l10 117h200l-10 -117c0 -112.667 48.333 -169 145 -169h260c96.667 0 145 56.333 145 169v333
c-69.333 -41.333 -144.333 -62 -225 -62h-100c-263.333 0 -395 115 -395 345v172c13.333 180 110 288.333 290 325l56 -178c-97.333 -20 -146 -90 -146 -210v-129z" />
    <glyph glyph-name="uni10B8" unicode="&#x10b8;" horiz-adv-x="1160" 
d="M100 600c0 235.333 117.667 353.667 353 355l397 1v288c0 54 -35 81 -105 81h-80c-45.333 0 -68.333 -23.333 -69 -70v-154h-214l-1 158c0 44 -33 66 -99 66h-182v174h172c106 0 159 -43.333 159 -130h115c0 86.667 70.667 130 212 130c194.667 0 292 -85 292 -255v-914
c0 -236.667 -118.333 -355 -355 -355h-240c-236.667 0 -355 118.333 -355 355v270zM695 151.001c103.333 0 155 59.667 155 179v450h-395c-102.667 0 -154 -60 -154 -180v-270c0 -119.333 51.333 -179 154 -179h240z" />
    <glyph glyph-name="uni10B9" unicode="&#x10b9;" horiz-adv-x="1160" 
d="M110 -10v1256c0 170.667 95 255.667 285 255l210 -1c88 -0.666992 153.833 -20.667 197.5 -60s65.5 -99.333 65.5 -180v-109l-101 -206c195.333 -32 293 -113.333 293 -244l-10 -711h-200l10 711c0.666992 26.667 -6.33301 46.667 -21 60s-36 20 -64 20h-372
c-62 -1.33301 -93 -28 -93 -80v-711h-200zM310 909c49.333 31.333 107 47 173 47c116.667 0 175 65 175 195v77c0 32.667 -6 57 -18 73s-29 24 -51 24l-194 1c-56.667 0 -85 -26.667 -85 -80v-337z" />
    <glyph glyph-name="uni10BA" unicode="&#x10ba;" horiz-adv-x="1240" 
d="M525 395l259.999 0.999023c90 0 135 54 135 162c0 54 -8.83301 95 -26.5 123s-44.5 42.667 -80.5 44c-70.667 2.66699 -123.667 28.167 -159 76.5s-53 122.833 -53 223.5h200c2.66699 -86 27.334 -132.333 74.001 -139c163.333 -7.33301 245 -116.666 245 -327.999
c0 -108 -45.333 -190 -136 -246c104 -63.333 156 -154 156 -272v-128c0 -230 -115 -345 -345 -345h-340c-230 0 -345 115 -345 345v1083h200v-1083c0 -112.667 48.333 -169 145 -169h340c96.667 0 145 56.333 145 169v128c0 120 -45 180 -135 180h-280v175z" />
    <glyph glyph-name="uni10BB" unicode="&#x10bb;" horiz-adv-x="1160" 
d="M850 1500h200v-1180c0 -230 -115 -345 -345 -345h-260c-230 0 -345 115 -345 345v360c0 230 115 345 345 345h405v475zM300 320c0 -112.667 48.333 -169 145 -169h260c96.667 0 145 56.333 145 169v530h-405c-96.667 0 -145 -56.667 -145 -170v-360z" />
    <glyph glyph-name="uni10BC" unicode="&#x10bc;" horiz-adv-x="1160" 
d="M1060 330c0 -236.667 -118.333 -355.001 -355 -355.001h-240c-236.667 0 -355 118.333 -355 355v914c0 170 97.333 255 292 255c141.333 0 212 -43.333 212 -130h115c0 86.667 53 130 159 130h172v-174h-182c-66 0 -99 -22 -99 -66l-1 -157h-214v153
c-0.666992 46.667 -23.667 70 -69 70h-80c-70 0 -105 -27 -105 -81v-288l397 -1c235.333 -1.33301 353 -119.666 353 -354.999v-270zM705 150.999c102.667 0 154 59.667 154 179v270c0 120 -51.333 180 -154 180h-395v-450c0 -119.333 51.667 -179 155 -179h240z" />
    <glyph glyph-name="uni10BD" unicode="&#x10bd;" horiz-adv-x="1215" 
d="M736 439h-212c-202 0 -303 98.333 -303 295c0 194 101 291 303 291h285v475h187v-475h144v-175h-119l39 -941c0 -230 -115 -345 -345 -345h-260c-230 0 -345 115 -345 345l50 337h200l-50 -337c0 -112.667 48.333 -169 145 -169h260c96.667 0 145 56.333 145 169l-39 941
h-295c-34 0 -60 -9.66699 -78 -29s-27 -48.333 -27 -87c0 -80 35 -120 105 -120h210v-175z" />
    <glyph glyph-name="uni10BE" unicode="&#x10be;" horiz-adv-x="1160" 
d="M310 1025h405c230 0 345 -115 345 -345v-360c0 -230 -115 -345 -345 -345h-260c-230 0 -345 115 -345 345v1180h200v-475zM310 850v-530c0 -112.667 48.333 -169 145 -169h260c96.667 0 145 56.333 145 169v360c0 113.333 -48.333 170 -145 170h-405z" />
    <glyph glyph-name="uni10BF" unicode="&#x10bf;" horiz-adv-x="1150" 
d="M160 975h295v201h207v-201h268v-175h-290v-294h25c242.667 0 367.667 -125 375 -375l10 -220c0 -230 -115 -345 -345 -345h-260c-230 0 -345 115 -345 345l20 270h200l-20 -270c0 -112.667 48.333 -169 145 -169h260c96.667 0 145 56.333 145 169l-10 220
c-6 133.333 -64.333 200 -175 200h-242v469h-263v175z" />
    <glyph glyph-name="uni10C0" unicode="&#x10c0;" horiz-adv-x="1140" 
d="M433 652h262.999c76 0.666992 114 27.667 114 81v67c0 46 -41.667 69 -125 69h-263v175l273 1c67.333 0 101 22 101 66v89c0 21.333 -11.5 36.833 -34.5 46.5s-56.833 14.834 -101.5 15.501l-212 1c-128.667 0 -193 79.333 -193 238h200c0 -43.333 18.333 -65 55 -65h250
c156.667 0 235 -59 235 -177v-115c0 -82.667 -47 -143.334 -141 -182.001c104 -32 156 -76 156 -132v-140c0 -50.667 -46.333 -93.334 -139 -128.001c104.667 -48 157.334 -110.333 158.001 -187l1 -139c1.33301 -173.333 -113.667 -260.666 -345 -261.999l-240 1
c-230 0.666992 -345 115.667 -345 345l10 110h200l-10 -110c0 -112.667 48.333 -169 145 -169l250 -1c90 0 135 35.667 135 107v102c0 78.667 -41.667 118 -125 118h-272v175z" />
    <glyph glyph-name="uni10D0" unicode="&#x10d0;" horiz-adv-x="1180" 
d="M320 810l-10 -490c0 -112.667 48.333 -169 145 -169h260c96.667 0 145 56.333 145 169l-5 596c0 113.333 -48.333 170 -145 170h-85c-180 0 -270 135 -270 405h200c0 -153.333 22.667 -230 68 -230h87c230 0 345 -115 345 -345l5 -596c0 -230 -115 -345 -345 -345h-260
c-230 0 -345 115 -345 345l10 490h200z" />
    <glyph glyph-name="uni10D1" unicode="&#x10d1;" horiz-adv-x="1170" 
d="M110 650c0 230 111 345.001 333 345.001h65l20 93c0 139.333 -35 219.666 -105 240.999c-70 20.667 -105 81 -105 181h231c0.666992 -45.333 30.667 -84.333 90 -117c53.333 -30 80 -115 80 -255v-37c0 -4 -0.333008 -8.33301 -1 -13l-10 -93h52c200 0 300 -115 300 -345
v-330c0 -230 -115 -345 -345 -345h-260c-230 0 -345 115 -345 345v330zM715 151.001c96.667 0 145 56.333 145 169v330c0 113.333 -48.333 170 -145 170h-280c-83.333 0 -125 -56.667 -125 -170v-330c0 -112.667 48.333 -169 145 -169h260z" />
    <glyph glyph-name="uni10D2" unicode="&#x10d2;" horiz-adv-x="1250" 
d="M110 651c0 230 114.333 345 343 345h297v249c0 53.333 -33.333 80 -100 80h-95c-84 0 -126 -21.667 -126 -65v-65h-189v65c0 160 101.333 240 304 240h126c186.667 0 280 -85 280 -255v-260c126.667 -30.667 190 -142 190 -334v-331c0 -230 -115 -345 -345 -345h-340
c-230 0 -345 115 -345 345v331zM795 151c96.667 0 145 56.333 145 169v331c0 113.333 -48.333 170 -145 170h-340c-96.667 0 -145 -56.667 -145 -170v-331c0 -112.667 48.333 -169 145 -169h340z" />
    <glyph glyph-name="uni10D3" unicode="&#x10d3;" horiz-adv-x="1820" 
d="M1200 -25c0 40 -58.333 60 -175 60l-620 -1c-178.667 0 -268 104.333 -268 313l-17 808c0 230 115 345 345 345h122c119.333 0 207 -44.333 263 -133c70 88.667 155 133 255 133h262c228.667 0 343 -115 343 -345v-308c0 -250 -115 -375 -345 -375h-260
c-230 0 -345 125 -345 375v308c0 113.333 -58.333 170 -175 170h-120c-96.667 0 -145 -56.667 -145 -170l17 -792c0 -102 47.667 -153 143 -153h565c250 0 375 -78.333 375 -235h-220zM1365 648c96.667 0 145 66.333 145 199v308c0 113.333 -48.333 170 -145 170h-260
c-96.667 0 -145 -56.667 -145 -170v-308c0 -132.667 48.333 -199 145 -199h260z" />
    <glyph glyph-name="uni10D4" unicode="&#x10d4;" horiz-adv-x="1180" 
d="M180 1155c-0.666992 5.33301 -1 10.333 -1 15v14c0 105.333 28.167 184.333 84.5 237s139.5 79 249.5 79h202c230 0 345 -115 345 -345v-835c0 -230 -115 -345 -345 -345h-260c-230 0 -345 115 -345 345l30 327h200l-30 -327c0 -112.667 48.333 -169 145 -169h260
c96.667 0 145 56.333 145 169v835c0 113.333 -48.333 170 -145 170h-200c-96.667 0 -145 -56.667 -145 -170l10 -221h-200v221z" />
    <glyph glyph-name="uni10D5" unicode="&#x10d5;" horiz-adv-x="1180" 
d="M485 850h203c101.333 0 152 59.667 152 179v126c0 113.333 -48.333 170 -145 170h-200c-96.667 0 -145 -56.667 -145 -170l20 -162h-200l-20 162c0 230 114.333 345 343 345h202c230 0 345 -115 345 -345v-126c0 -110 -50.333 -196 -151 -258c114 -62 171 -151 171 -267
v-185c0 -230 -125 -345 -375 -345h-200c-250 0 -375 115 -375 345l20 279h200l-20 -279c0 -112.667 58.333 -169 175 -169h200c116.667 0 175 56.333 175 169v185c0 113.333 -51.667 170 -155 170h-220v176z" />
    <glyph glyph-name="uni10D6" unicode="&#x10d6;" horiz-adv-x="1260" 
d="M0 915l-0.000976562 209c0 250 111 375 333 375h182c200.667 0 302.334 -98.333 305.001 -295v-100c0 -32 -0.666992 -57 -2 -75s-2 -29.333 -2 -34c222.667 -6.66699 334 -121.667 334 -345v-330c0 -230 -118.333 -345 -355 -345h-260c-230 0 -345 115 -345 345v347
c-126.667 34 -190 116.667 -190 248zM794.999 820h-260c-96.667 0 -145 -56.667 -145 -170v-330c0 -112.667 48.333 -169 145 -169h260c103.333 0 155 56.333 155 169v330c0 113.333 -51.667 170 -155 170zM619.999 1204c-6.66699 72.667 -48.333 112.667 -125 120h-160
c-90 0 -135 -66.667 -135 -200v-209c0 -34 8.33301 -60.333 25 -79c90 106 192.667 159 308 159h87v209z" />
    <glyph glyph-name="uni10D7" unicode="&#x10d7;" horiz-adv-x="1800" 
d="M1285 151c130 20 195.001 73 195.001 159v855c0 106.667 -45 160 -135 160h-140c-108 0 -169 -46 -183 -138l4 -30.5l4 -31.5v-815c0 -223.333 -111.667 -335 -335 -335h-240c-223.333 0 -335 111.667 -335 335v855c0 223.333 111 335 333 335h242
c93.333 0 172.666 -47.667 237.999 -143c60 95.333 136.667 143 230 143h182c223.333 0 335 -111.667 335 -335v-855c0 -203.333 -131.333 -315 -394 -335zM695.001 151c90 0 135 53 135 159v855c0 106.667 -45 160 -135 160h-240c-90 0 -135 -53.333 -135 -160v-855
c0 -106 45 -159 135 -159h240z" />
    <glyph glyph-name="uni10D8" unicode="&#x10d8;" horiz-adv-x="1190" 
d="M475 -25c-236.667 32.667 -355 144.334 -355 335.001v854c0 223.333 111 335 333 335h282c223.333 0 335 -111.667 335 -335v-854c0 -190.667 -118.333 -302.334 -355 -335.001v186c103.333 16 155 65.667 155 149v854c0 106.667 -45 160 -135 160h-280
c-90 0 -135 -53.333 -135 -160v-854c0 -83.333 51.667 -133 155 -149v-186z" />
    <glyph glyph-name="uni10D9" unicode="&#x10d9;" horiz-adv-x="1170" 
d="M495 879l130 -1.00195c143.333 -0.666992 215 60.333 215 183v73c0 77.333 -75 141 -225 191l50 185c250.667 -72.667 376 -192.667 376 -360v-71c0 -123.333 -49.667 -216.666 -149 -279.999c112 -63.333 168 -151.666 168 -264.999v-224
c0 -223.333 -115 -335 -345 -335h-260c-230 0 -345 111.667 -345 335l30 354h200l-30 -354c0 -106 48.333 -159 145 -159h260c96.667 0 145 53 145 159v224c0 112.667 -50 169.667 -150 171l-215 -1v175z" />
    <glyph glyph-name="uni10DA" unicode="&#x10da;" horiz-adv-x="2330" 
d="M1360 717l0.000976562 439c0 113.333 -48.333 170 -145 170h-110c-96.667 0 -145 -56.667 -145 -170v-439h-200v439c0 113.333 -48.333 170 -145 170h-150c-96.667 0 -145 -56.667 -145 -170l15 -771c1.33301 -115.333 78.666 -173 231.999 -173h838
c250 0 375 -79 375 -237h-220c0 40 -57 60 -171 60l-917 -1c-224 0 -336.333 117 -337 351l-15 771c0 230 114.333 345 343 345h152c99.333 0 180.666 -41 243.999 -123c62.667 82 144 123 244 123h112c98 0 178.667 -40 242 -120c62.667 80 145.334 120 248.001 120h172
c228.667 0 343 -115 343 -345v-439c0 -196.667 -121.667 -325 -365 -385v196c110 46.667 165 109.667 165 189v439c0 113.333 -48.333 170 -145 170h-170c-96.667 0 -145 -56.667 -145 -170v-439h-200z" />
    <glyph glyph-name="uni10DB" unicode="&#x10db;" horiz-adv-x="1180" 
d="M110 650c0 230 114.334 345 343.001 345h262c47.333 0 95.666 -16 144.999 -48v267c0 74 -45 111 -135 111h-286c-70 0 -105 -40.333 -105 -121h-200c0 196.667 101 295 303 295h288c223.333 0 335 -95 335 -285v-894c0 -230 -115 -345 -345 -345h-260
c-230 0 -345 115 -345 345v330zM715.001 151c96.667 0 145 56.333 145 169v330c0 113.333 -48.333 170 -145 170h-260c-96.667 0 -145 -56.667 -145 -170v-330c0 -112.667 48.333 -169 145 -169h260z" />
    <glyph glyph-name="uni10DC" unicode="&#x10dc;" horiz-adv-x="1180" 
d="M120 1196c0 190 108.333 285 325 285l525 -1v-175l-525 1c-83.333 0 -125 -36.667 -125 -110v-248c49.333 31.333 97 47 143 47h262c230 0 345 -115 345 -345v-330c0 -230 -115 -345 -345 -345h-260c-230 0 -345 115 -345 345v876zM725 151c96.667 0 145 56.333 145 169
v330c0 113.333 -48.333 170 -145 170h-260c-96.667 0 -145 -56.667 -145 -170v-330c0 -112.667 48.333 -169 145 -169h260z" />
    <glyph glyph-name="uni10DD" unicode="&#x10dd;" horiz-adv-x="1750" 
d="M780 500l-0.000976562 656c0 113.333 -48.333 170 -145 170h-170c-96.667 0 -145 -56.667 -145 -170v-836c0 -86 68.333 -139 205 -159v-186c-270 20 -405 135 -405 345v836c0 230 114.333 345 343 345h172c100 0 181.667 -51 245 -153
c62.667 102 144.334 153 245.001 153h162c228.667 0 343 -115 343 -345v-836c0 -210 -135 -325 -405 -345v186c136.667 20 205 73 205 159v836c0 113.333 -48.333 170 -145 170h-160c-96.667 0 -145 -56.667 -145 -170v-656h-200z" />
    <glyph glyph-name="uni10DE" unicode="&#x10de;" horiz-adv-x="1170" 
d="M485 926h200c116.667 0 175 56 175 168c0 93.333 -58 140 -174 140h-91c-200 0 -300 89 -300 267h200c0 -61.333 32.667 -92 98 -92h92c250 0 375 -105 375 -315c0 -116 -45.333 -203 -136 -261c90.667 -64 136 -148 136 -252v-261c0 -230 -115 -345 -345 -345h-260
c-230 0 -345 115 -345 345l30 360h200l-30 -360c0 -112.667 48.333 -169 145 -169h260c96.667 0 145 56.333 145 169v261c0 113.333 -58.333 170 -175 170h-200v175z" />
    <glyph glyph-name="uni10DF" unicode="&#x10df;" horiz-adv-x="1180" 
d="M230 1481h830v-1161c0 -230 -115 -345 -345 -345h-260c-230 0 -345 115 -345 345l20 315h200l-20 -315c0 -112.667 48.333 -169 145 -169h260c96.667 0 145 56.333 145 169v1006h-175v-190c0 -210 -108.333 -315 -325 -315h-230v176h230c83.333 0 125 46.333 125 139v178
h-255v167z" />
    <glyph glyph-name="uni10E0" unicode="&#x10e0;" horiz-adv-x="1740" 
d="M1222 1315h-800c-63.333 0 -95 -36.667 -95 -110l-7 -300c35.333 56 84 85.667 146 89h139c120 0 211.667 -47.667 275 -143c63.333 95.333 155 143 275 143h132c228.667 0 343 -115 343 -345v-329c0 -210 -131.667 -325 -395 -345v176c130 20 195 76.333 195 169v329
c0 113.333 -48.333 170 -145 170h-130c-116.667 0 -175 -56.667 -175 -170v-299h-200v299c0 113.333 -58.333 170 -175 170h-140c-96.667 0 -145 -56.667 -145 -170v-329c0 -92.667 65 -149 195 -169v-176c-263.333 20 -395 135 -395 345v329l6 553
c0 189.333 131.333 285.333 394 288h702v-175z" />
    <glyph glyph-name="uni10E1" unicode="&#x10e1;" horiz-adv-x="1180" 
d="M772 1164c0 -124 37.667 -193.667 113 -209c123.333 -33.333 185 -158.333 185 -375v-260c0 -230 -115 -345 -345 -345h-260c-230 0 -345 115 -345 345v1180h200v-1180c0 -112.667 48.333 -169 145 -169h260c96.667 0 145 56.333 145 169v260c0 130 -34.333 203 -103 219
c-130 20 -195 141.667 -195 365h200z" />
    <glyph glyph-name="uni10E2" unicode="&#x10e2;" horiz-adv-x="1383" 
d="M120 1080c0 230 114.333 345 343 345h133v75h180v-75h142c230 0 345 -115 345 -345v-760c0 -230 -115 -345 -345 -345h-453c-230 0 -345 115 -345 345v760zM596 1265h-131c-96.667 0 -145 -56.667 -145 -170v-775c0 -112.667 48.333 -169 145 -169h453
c96.667 0 145 56.333 145 169v775c0 113.333 -48.333 170 -145 170h-142v-673h-180v673z" />
    <glyph glyph-name="uni10E3" unicode="&#x10e3;" horiz-adv-x="1180" 
d="M417 1196c0 86 -47.333 129 -142 129h-163v175h163c88 0 163.333 -40.333 226 -121c56.667 80.667 123 121 199 121h116c162.667 0 244 -91.333 244 -274v-906c0 -230 -115 -345 -345 -345h-260c-230 0 -345 115 -345 345l20 365h200l-20 -365
c0 -112.667 48.333 -169 145 -169h260c96.667 0 145 56.333 145 169v876c0 86 -20 129 -60 129h-131c-41.333 0 -62 -43 -62 -129v-321h-190v321z" />
    <glyph glyph-name="uni10E4" unicode="&#x10e4;" horiz-adv-x="1810" 
d="M1255 742l50.001 0.000976562c66 0 115 18.667 147 56s48 96.333 48 177v180c0 113.333 -48.333 170 -145 170h-120c-118 0 -177 -47 -177 -141c0 -4.66699 0.166992 -9.33398 0.5 -14.001s0.833008 -9.66699 1.5 -15v-334c0 -230 -115 -345 -345 -345h-260
c-230 0 -345 115 -345 345v334c0 230 114.333 345 343 345h262c99.333 0 180.666 -41 243.999 -123c62.667 82 154 123 274 123h122c230 0 345 -115 345 -345v-180c0 -144 -61.667 -252 -185 -324c110 -63.333 165 -147.333 165 -252v-90
c0 -223.333 -124.667 -335 -374 -335h-479c-253.333 0 -380 97.667 -380 293h200c0 -78 59.333 -117 178 -117h480c116.667 0 175 53 175 159v90c0 114 -58.333 171 -175 171h-50v172zM715.001 652.001c96.667 0 145 56.333 145 169v334c0 113.333 -48.333 170 -145 170
h-260c-96.667 0 -145 -56.667 -145 -170v-334c0 -112.667 48.333 -169 145 -169h260z" />
    <glyph glyph-name="uni10E5" unicode="&#x10e5;" horiz-adv-x="1180" 
d="M170 1050c-0.666992 5.33301 -0.999023 10.334 -0.999023 15.001v15c0 105.333 27.167 184.166 81.5 236.499s135.166 78.5 242.499 78.5h92c92.667 0 184.334 -39.333 275.001 -118v222h200v-1180c0 -230 -115 -345 -345 -345h-260c-230 0 -345 115 -345 345l20 307h200
l-20 -307c0 -112.667 48.333 -169 145 -169h260c96.667 0 145 56.333 145 169v645c-4.66699 130.667 -96.334 216 -275.001 256h-90c-90 0 -135 -56.667 -135 -170l10 -171h-200v171z" />
    <glyph glyph-name="uni10E6" unicode="&#x10e6;" horiz-adv-x="1730" 
d="M1140 -24c0 39.333 -58.333 59.002 -175 59.002l-437 -1c-260.667 -0.666992 -391 116.333 -391 351l-17 771c0 230 114.333 345 343 345h152c106.667 0 191.667 -41 255 -123c62.667 82 147.667 123 255 123h152c228.667 0 343 -115 343 -345v-380
c0 -210.667 -118.333 -342.334 -355 -395.001v196c103.333 27.333 155 93.666 155 198.999v380c0 113.333 -48.333 170 -145 170h-150c-103.333 0 -155 -56.667 -155 -170v-360h-200v360c0 113.333 -51.667 170 -155 170h-150c-96.667 0 -145 -56.667 -145 -170l17 -792
c0 -102 63.667 -153 191 -153h432c253.333 0 380 -78.333 380 -235h-200z" />
    <glyph glyph-name="uni10E7" unicode="&#x10e7;" horiz-adv-x="1180" 
d="M340 935c-0.666992 -112.667 71.001 -169.002 215.001 -169.002h80c150 0 225 49.667 225 149v564h200v-1160c0 -230 -125 -345 -375 -345h-200c-250 0 -375 115 -375 345l10 147h200l-10 -147c0 -112.667 58.333 -169 175 -169h200c116.667 0 175 56.333 175 169v353
c-66.667 -54.667 -141.667 -82 -225 -82h-80c-139.333 0 -243.5 28.333 -312.5 85s-103.167 143.334 -102.5 260.001l1 192v-1c3.33301 216.667 109.666 341.334 318.999 374.001l56 -184c-116.667 -26.667 -175 -93.667 -175 -201z" />
    <glyph glyph-name="uni10E8" unicode="&#x10e8;" horiz-adv-x="1180" 
d="M110 600c0 235.333 117.667 353.667 353 355l397 1v288c0 54 -35 81 -105 81h-80c-45.333 0 -68.333 -23.333 -69 -70v-154h-214l-1 158c0 44 -33 66 -99 66h-182v174h172c106 0 159 -43.333 159 -130h115c0 86.667 70.667 130 212 130c194.667 0 292 -85 292 -255v-914
c0 -236.667 -118.333 -355 -355 -355h-240c-236.667 0 -355 118.333 -355 355v270zM705 151.001c103.333 0 155 59.667 155 179v450h-395c-102.667 0 -154 -60 -154 -180v-270c0 -119.333 51.333 -179 154 -179h240z" />
    <glyph glyph-name="uni10E9" unicode="&#x10e9;" horiz-adv-x="1160" 
d="M110 -10v1256c0 170.667 95 255.667 285 255l210 -1c88 -0.666992 153.833 -20.667 197.5 -60s65.5 -99.333 65.5 -180v-109l-101 -206c195.333 -32 293 -113.333 293 -244l-10 -711h-200l10 711c0.666992 26.667 -6.33301 46.667 -21 60s-36 20 -64 20h-372
c-62 -1.33301 -93 -28 -93 -80v-711h-200zM310 909c49.333 31.333 107 47 173 47c116.667 0 175 65 175 195v77c0 32.667 -6 57 -18 73s-29 24 -51 24l-194 1c-56.667 0 -85 -26.667 -85 -80v-337z" />
    <glyph glyph-name="uni10EA" unicode="&#x10ea;" horiz-adv-x="1230" 
d="M791 1501c0 -92 18 -138.001 54 -138.001c170 0 255 -109.333 255 -328c0 -108 -35.333 -190 -106 -246c84 -63.333 126 -150.666 126 -261.999v-208c0 -230 -115 -345 -345 -345h-310c-230 0 -345 115 -345 345v1153h200v-1153c0 -112.667 48.333 -169 145 -169h310
c96.667 0 145 56.333 145 169v208c0 113.333 -48.333 170 -145 170h-240v175l240 1c83.333 0 125 54 125 162c0 100.667 -18 151 -54 151c-170 0 -255 105 -255 315h200z" />
    <glyph glyph-name="uni10EB" unicode="&#x10eb;" horiz-adv-x="1180" 
d="M860 1500h200v-1180c0 -230 -115 -345 -345 -345h-260c-230 0 -345 115 -345 345v330c0 230 115 345 345 345h405v505zM310 320c0 -112.667 48.333 -169 145 -169h260c96.667 0 145 56.333 145 169v500h-405c-96.667 0 -145 -56.667 -145 -170v-330z" />
    <glyph glyph-name="uni10EC" unicode="&#x10ec;" horiz-adv-x="1170" 
d="M1070 330c0 -236.667 -118.333 -355.001 -355 -355.001h-240c-236.667 0 -355 118.333 -355 355v914c0 170 97.333 255 292 255c141.333 0 212 -43.333 212 -130h115c0 86.667 53 130 159 130h172v-174h-182c-66 0 -99 -22 -99 -66l-1 -158h-214v154
c-0.666992 46.667 -23.667 70 -69 70h-80c-70 0 -105 -27 -105 -81v-288l397 -1c235.333 -1.33301 353 -119.666 353 -354.999v-270zM715 150.999c102.667 0 154 59.667 154 179v270c0 120 -51.333 180 -154 180h-395v-450c0 -119.333 51.667 -179 155 -179h240z" />
    <glyph glyph-name="uni10ED" unicode="&#x10ed;" horiz-adv-x="1215" 
d="M735 866h-192c-202 0 -303 95 -303 285c0 187.333 101 281 303 281h181v68h196v-68h215v-175h-199l124 -938c0 -230 -115 -345 -345 -345h-260c-230 0 -345 115 -345 345l50 337h200l-50 -337c0 -112.667 48.333 -169 145 -169h260c96.667 0 145 56.333 145 169l-124 938
h-191c-34 0 -60 -8.66699 -78 -26s-27 -44 -27 -80c0 -73.333 35 -110 105 -110h190v-175z" />
    <glyph glyph-name="uni10EE" unicode="&#x10ee;" horiz-adv-x="1180" 
d="M320 995h405c230 0 345 -115 345 -345v-330c0 -230 -115 -345 -345 -345h-260c-230 0 -345 115 -345 345v1180h200v-505zM320 820v-500c0 -112.667 48.333 -169 145 -169h260c96.667 0 145 56.333 145 169v330c0 113.333 -48.333 170 -145 170h-405z" />
    <glyph glyph-name="uni10EF" unicode="&#x10ef;" horiz-adv-x="1170" 
d="M160 1366h305v133h202l-12 -138h285v-170h-295v-196h30c250 0 375 -125 375 -375l10 -301c0 -230 -115 -345 -345 -345h-260c-230 0 -345 115 -345 345l10 331h200l-10 -331c0 -112.667 48.333 -169 145 -169h260c96.667 0 145 56.333 145 169l-10 301
c0 133.333 -58.333 200 -175 200h-235v376h-280v170z" />
    <glyph glyph-name="uni10F0" unicode="&#x10f0;" horiz-adv-x="1180" 
d="M470 1085l245 -0.00195312c83.333 0 125 21.667 125 65v118c0 38 -57.667 57 -173 57l-390 -1v176h388c250.667 0 376 -69.667 376 -209v-105c0 -91.333 -50 -152.333 -150 -183c106 -35.333 159 -94.666 159 -177.999v-70c0 -75.333 -50.667 -133 -152 -173
c108 -43.333 162 -117.333 162 -222v-97c0 -192 -115 -288.333 -345 -289l-260 1c-230 0.666992 -345 115.667 -345 345l10 170h200l-10 -170c0 -112.667 48.333 -169 145 -169l270 -1c90 0.666992 135 42.334 135 125.001v88c0 89.333 -48.333 134 -145 134h-235v175h245
c83.333 0 125 26 125 78v75c0 56.667 -48.333 85 -145 85h-235v175z" />
    <glyph glyph-name="endash" unicode="&#x2013;" 
d="M-6 488v140h1036v-140h-1036z" />
    <glyph glyph-name="emdash" unicode="&#x2014;" horiz-adv-x="2048" 
d="M8 628h2032v-140h-2032v140z" />
    <glyph glyph-name="quoteleft" unicode="&#x2018;" horiz-adv-x="664" 
d="M431 1292l-0.000976562 -240h-198v262c0 56.667 16.833 99.667 50.5 129s82.834 44 147.501 44l-1 -122c-23.333 -2.66699 -40 -7.66699 -50 -15s-15 -19.333 -15 -36v-22h66z" />
    <glyph glyph-name="quoteright" unicode="&#x2019;" horiz-adv-x="664" 
d="M233 1247l0.000976562 239.999h198v-262c0 -56.667 -16.833 -99.667 -50.5 -129s-82.834 -44 -147.501 -44v122c23.333 2 40 6.83301 50 14.5s15 19.834 15 36.501v22h-65z" />
    <glyph glyph-name="quotesinglbase" unicode="&#x201a;" horiz-adv-x="664" 
d="M233 0l0.000976562 240h198v-262c0 -56.667 -16.833 -99.834 -50.5 -129.501s-82.834 -44.5 -147.501 -44.5v123c23.333 2 40 6.83301 50 14.5s15 19.834 15 36.501v22h-65z" />
    <glyph glyph-name="quotedblleft" unicode="&#x201c;" horiz-adv-x="1006" 
d="M434 1292v-240h-199v262c0 56.667 17 99.667 51 129s83.333 44 148 44l-1 -122c-24 -2.66699 -40.833 -7.66699 -50.5 -15s-14.5 -19.333 -14.5 -36v-22h66zM771 1292l-0.000976562 -240h-201v262c0 56.667 16.833 99.667 50.5 129s83.834 44 150.501 44l-1 -122
c-25.333 -2.66699 -43 -7.66699 -53 -15s-15 -19.333 -15 -36v-22h69z" />
    <glyph glyph-name="quotedblright" unicode="&#x201d;" horiz-adv-x="1006" 
d="M570 1247v239.999h199v-262c0 -56.667 -17 -99.667 -51 -129s-83.333 -44 -148 -44v122c23.333 2 40 6.83301 50 14.5s15 19.834 15 36.501v22h-65zM235 1247v240h199v-262c0 -56.667 -17 -99.667 -51 -129s-83.333 -44 -148 -44v122c24 2.66699 41 7.66699 51 15
s15 19.333 15 36v22h-66z" />
    <glyph glyph-name="quotedblbase" unicode="&#x201e;" horiz-adv-x="1006" 
d="M235 0l0.000976562 240h199v-262c0 -56.667 -17 -99.834 -51 -129.501s-83.333 -44.5 -148 -44.5v123c23.333 2 40.166 6.83301 50.499 14.5s15.5 19.834 15.5 36.501v22h-66zM570.001 0v240h199v-262c0 -56.667 -17 -99.834 -51 -129.501s-83.333 -44.5 -148 -44.5v123
c23.333 2 40 6.83301 50 14.5s15 19.834 15 36.501v22h-65z" />
    <glyph glyph-name="dagger" unicode="&#x2020;" 
d="M607 1487v-388h287v-177h-287v-922h-190v922h-287v177h287v388h190z" />
    <glyph glyph-name="daggerdbl" unicode="&#x2021;" 
d="M607 1487v-330h287v-176h-287v-472h287v-176h-287v-333h-190v333h-287v176h287v472h-287v176h287v330h190z" />
    <glyph glyph-name="bullet" unicode="&#x2022;" horiz-adv-x="1208" 
d="M296 761c0 42.667 8.16602 82.5 24.499 119.5s38.5 69.333 66.5 97s60.667 49.5 98 65.5s77 24 119 24s81.5 -8 118.5 -24s69.5 -38 97.5 -66s50 -60.5 66 -97.5s24 -76.5 24 -118.5s-8.33301 -81.667 -25 -119s-39 -70.166 -67 -98.499s-60.667 -50.666 -98 -66.999
s-76.666 -24.5 -117.999 -24.5c-42 0 -81.667 8.16699 -119 24.5s-69.833 38.666 -97.5 66.999s-49.5 61.166 -65.5 98.499s-24 77 -24 119z" />
    <glyph glyph-name="ellipsis" unicode="&#x2026;" horiz-adv-x="2048" 
d="M113 0v250h208v-250h-208zM794 0v250h208v-250h-208zM1478 0v250h208v-250h-208z" />
    <glyph glyph-name="guilsinglleft" unicode="&#x2039;" horiz-adv-x="631" 
d="M550 207h-217l-253 324l253 325h217l-256 -325z" />
    <glyph glyph-name="guilsinglright" unicode="&#x203a;" horiz-adv-x="631" 
d="M81 207l254.999 323.999c-9.33301 12.667 -19.166 25.334 -29.499 38.001l-32.5 41l-66 84l-65.5 83.5l-61.5 78.5h216l253 -325l-253 -324h-216z" />
    <glyph glyph-name="trademark" unicode="&#x2122;" horiz-adv-x="1706" 
d="M717 1453v-94h-167v-460h-119v460h-171v94h457zM948 1453l148 -374l70 188.5l68 185.5h146v-554h-108v367l-69.5 -185l-69.5 -182h-75l-148 373v-373h-108v554h146z" />
    <glyph glyph-name="minus" unicode="&#x2212;" horiz-adv-x="1706" 
d="M1455 680v-134h-1204v134h1204z" />
    <glyph glyph-name="fraction" unicode="&#x2215;" horiz-adv-x="342" 
d="M-361 -18l867 1523h195l-865 -1523h-197z" />
    <glyph glyph-name="periodcentered" unicode="&#x2219;" horiz-adv-x="692" 
d="M211 793c0 18 3.6709 35.167 11.0039 51.5s17.166 30.666 29.499 42.999s26.666 22 42.999 29s33.5 10.5 51.5 10.5s35.167 -3.5 51.5 -10.5s30.666 -16.667 42.999 -29s22.166 -26.666 29.499 -42.999s11 -33.5 11 -51.5s-3.5 -35 -10.5 -51s-16.5 -30 -28.5 -42
s-26.333 -21.667 -43 -29s-34.334 -11 -53.001 -11c-19.333 0 -37.166 3.66699 -53.499 11s-30.5 17 -42.5 29s-21.5 26 -28.5 42s-10.5 33 -10.5 51z" />
    <glyph glyph-name=".null" horiz-adv-x="0" 
 />
    <glyph glyph-name="nonmarkingreturn" horiz-adv-x="692" 
 />
  </font>
</defs>
</svg>
